<?xml version="1.0" encoding="utf-8"?>
<!-- Generator: Adobe Illustrator 26.0.2, SVG Export Plug-In . SVG Version: 6.00 Build 0)  -->
<svg version="1.1" id="Layer_1" xmlns="http://www.w3.org/2000/svg" xmlns:xlink="http://www.w3.org/1999/xlink" x="0px" y="0px"
	 viewBox="0 0 1604 1699" style="enable-background:new 0 0 1604 1699;" xml:space="preserve">
<style type="text/css">
	.st0{fill:none;}
	.st1{fill:#57BFCB;}
</style>
<path class="st0" d="M0,0h1604v1699H0V0z"/>
<path class="st1" d="M755.9,602.9c-5.2-8.6-12.3-15.8-19.7-22.4c-4.5-4-9.9-7.2-14.9-10.6c-6.6-4.5-25.7-11.9-28.1-12.2
	c-9.9-1.4-19.9-4.8-29.6-2.3c-7.2,1.8-26.2,4.6-28.6,4.6c-1.4-0.7-2-1.7-1.1-3.1c9.1-4.6,19.5-5.3,29-9.3c5.2-2.2,11.5-3.1,17.4-4.3
	c10.6-2.2,21.1-1,31.5-1.2c6.9-0.1,13.6,1.6,20.3,4.1c5.4,2,11.4,2.5,16.5,5.3c11.2,6.2,18.6,15.5,24.6,26.7
	c2.8,5.2,7,37.6,7.9,42.2c1.9,9.6,0.6,19.6,4.4,28.8c1.3-0.1,2.4-19.7,3.4-28.9c0.4-3.2,2.3-17.4,2.8-21.4
	c2.2-16.4,8.6-30.3,21.2-41.2l0.2,0.3l-0.3-0.3c0.6-1.4,1.7-2.4,3.2-3c8.4-3.2,15.7-9,25.5-8.9c1.9,0,4.9-1.6,7.4-2.5
	c8.5-3,17.1-0.9,25.5-1.6c8.3-0.6,16.3,0.7,24.2,3c11.7,3.4,23.7,6.1,34.9,10.7c5.1,2.1,11.1,3.3,15.4,7.3c-0.7,2.4-2.3,1.4-3.7,0.9
	c-9.9-3.7-20-7.1-30.7-6.9c-5,0.1-9.3-2.6-14.4-2.2c-14.5,1-28.5,3.5-41.7,9.9c-10.5,5.1-19.2,12.4-27.7,20.2
	c-5.4,4.9-15.8,18.9-17.3,20.7c-6.5,7.6-10.5,16.8-13.8,25.9c-1.8,5-3.3,10.8-4,16.5c-0.4,3.6-12.5,48.1-13.1,51.4
	c-1.1,0-1.5-0.5-1.4-1.2c0.9-9.8-0.9-19.4-2-29c-0.9-7.7-1.8-15.5-3.7-23.2c-2-8.3-11-27.5-12-29.5
	C761.3,612.2,757.2,604.9,755.9,602.9z"/>
<path class="st1" d="M362.4,1177c0,0.4-2.4-1.4-2.4-1c-1.2,0.3,1,3.6-0.4,4.5c-3.7-1.1-6-10.4-7.5-12.8c-1.3-2-2.1-4.2-3.4-6.9
	c-1.9,4.2-0.2,7.2,0.5,10.3c2.5,10.7,6.2,21.3,7.4,32.1c0.8,7.2,3.3,13.3,5.3,20c2.3,7.9,4.5,15.8,7.4,23.5c1,2.5,0.6,4.9,0.7,7.3
	l0.1-0.1c-3.5-1-3.2-4.9-4.1-7c-3.8-8.7-8.9-17-10.9-26.4c-1.9-9-4.8-17.7-6.4-26.9c-1.3-7.5-2.9-15.1-5.7-22.3
	c-0.9-2.2-0.8-4.8-1.3-7.2c-1.3-6.2-2.8-12.3-3.9-18.6c-1.9-11.6-3.7-23.2-3.8-35c0-0.3-0.5-0.7-1.5-1.9c-1.7,9.7-3.3,18.6-4.9,27.5
	c-0.3,0-0.6,0.1-0.9,0.1c-0.6-4.8-1.1-9.6-1.7-14.5c-0.6-4.8-2.1-9.7-1.6-14.4c0.6-5.8,1.6-11.5,2.1-17.4c0.5-5.7,1.2-11.4,2.6-16.8
	c2.1-7.6,2.6-15.5,4.4-23.2c1.5-6.5,3.1-13.1,4.1-19.8c0.3-2.4,1.4-4.8,1.4-7.6c2,0.7,1.7,2.1,1.7,3.3c0,7.8,1,15.9-0.4,23.4
	c-0.8,4.5,1.5,44.4,0.5,57c-1,11.9,2.9,22.9,7.1,34c3.6,9.4,12.4,25.2,16.6,34.3C364.5,1176.5,361.1,1174.9,362.4,1177z"/>
<path class="st1" d="M1019.1,737.8c4.7,4.9,9.1,10,12.6,15.8c1.1,1.9,3.8,2.4,4.1,5.1c0.1,0.8,2.3,4.6,2.6,5.3
	c2.5,6.5,7.2,11.8,10,18.2c2.4,5.6,5.5,10.6,2.6,16.8l0.1-0.1c-1.2,1-2.1,0.3-3.1-0.3c-7.4-4.5-15.2-7.1-24-6.3
	c-2.8,0.2-4.4,1.3-4.6,4.1c-0.1,2.3-1.1,4.5-1.1,6.9c-0.1,1.4-0.1,2.7-1.2,3.7c-4.5-4.7-9.6-8.9-13.2-14.2c-2.3-3.5-5.1-5.1-8.5-6.6
	c0.4-2,1.8-1.3,2.8-1.3c10.9,0,21.9-0.7,32.7,1.4c3.1,0.6,6.5,1.2,8.9,3.6c1.7,1.8,3.3,1.4,3.6-0.6c0.2-1.4,4.6-2.4,0.4-4.6
	c-3.2-1.7-4.3-5.5-6-8.7c-2.7-5.2-5.4-10.3-7.7-15.7c-0.5-1.2-11.7-18.5-12.8-21.2C1017.7,738.3,1018.2,737.8,1019.1,737.8z"/>
<path class="st1" d="M912.7,674.7c-1.1,1.5-2.4,1.1-3.4,1c-7.6-0.8-15.1-0.3-22.4,1.4c-6.2,1.4-12.5,3.1-18.5,5.3
	c-8.2,3-16.2,6.5-24.2,9.9c-1.5,0.6-3,0.4-4.3,0.9c-1.2,0.5-2.3,2.9-3.5,0.9c-0.8-1.3,1.3-2.4,2.3-3.4c6.8-6.8,15-11.9,23.7-15.1
	c7.6-2.7,15.9-5.2,24.4-3.8c2.1,0.3,4.3,0.1,6.5,0C899.9,671.8,906.4,671.6,912.7,674.7z"/>
<path class="st1" d="M597.2,820.9c3.4,8.9,10.1,12.4,17.7,15.2c6.7,2.5,21.5,6.5,22.2,6.4c3.1-0.4,13.9-1.6,16.9,1.1
	c2.4,2.1,4.7,4.4,7.2,6.5c0.9,0.8,1.3,2.1,0.3,3.1c-1,1.1-1.9,0.2-2.9-0.5c-6.6-4.5-13.6-7.5-21.9-6.9c-5.1,0.3-10.3-0.2-15.4,0.1
	C616.5,846.2,595.4,827.7,597.2,820.9z"/>
<path class="st1" d="M966.1,832.9c-3.8,7.7-11.6,9.5-18.6,10.8c-8.1,1.5-16.4,2.6-24.9,2.6c-3.9,0-8.3,1-12.4,2.1
	c-1.7,0.5-3.2,0.5-6.1,0.2c6-3.2,10.8-6.7,16.7-6.4c9.3,0.5,18.5-1.1,27.7-1.4c5.3-0.2,7.8-5.6,10.6-9.5c5-6.9,7.7-14.8,10-22.9
	c0.1-0.4,0.5-0.7,1.3-0.9c-0.8,5.4,3.4,11.2-1.8,16.3c-0.6,0.6,0.6,2.8,0.3,4.1C968.6,829.8,968.5,832.2,966.1,832.9L966.1,832.9z"
	/>
<path class="st1" d="M625.4,674.8c3-2.5,24.4-3.8,27.9-3.8c37.4,1.4,37.2,2.7,44.2,4.5c5.8,1.5,11.1,3.6,16.3,6.3
	c0.4,0.2,1.1,0.1,1.4,0.4c1.5,1.9,5.1,3.4,4.3,5.5c-1.3,2.9-3.8-0.5-5.2-1.1c-9.5-3.9-20-4.8-29.3-9.3
	C683,676.3,636.4,674.8,625.4,674.8z"/>
<path class="st1" d="M523.2,795c0-1.3,1.9-4,1.9-5.3c0.8,0.3,3.6,1.3,4.1,1c11.4-6.6,24.1-5.9,36.6-6c3.1,0,6.2,0,9.8,0.6
	c-8.2,5.8-20.2,20.4-32.6,44.2c-2.8-1.6,11.9-26.6,11.9-28.7c-1.3-1.9,0.8-4-1-6.4c-5-6.6-11.6-3.3-17.2-2.9
	C533.8,791.8,526,792.3,523.2,795z"/>
<path class="st1" d="M652.9,1100.1c0,4.7-4.1,9.1-8.5,9c-3.5,0-8.1-4.4-8.2-7.8c-0.2-4.6,4.7-10.3,8.6-10.3
	C648.3,1091.2,652.9,1096.3,652.9,1100.1z"/>
<path class="st1" d="M950,1030c-1.1,1.4-0.7,2.7-0.1,4.1c-2.2-2.3-21.3-29.8-20-40.4c1,5.1,9.7,16.1,11.6,19.1
	c2.1,3.3,9,13,9.2,14.7l-0.3,0.2C949.2,1028.8,948.9,1029,950,1030z"/>
<path class="st1" d="M839,816.9c-1.1,0-1.9-0.5-1.9-1.7c-0.3-5.5-3.1-10.2-4.6-15.3c-1.1-3.8,1.6-14.9,4.5-17.5c0.6-0.6,1-1,2-0.3
	c2.3,1.7,2.7,4.4,1.5,6.1c-1.8,2.8-1.5,5.6-1.6,8.6C839,803.5,839,810.2,839,816.9L839,816.9z"/>
<path class="st1" d="M571.9,689.7c-1.4,2.7-3.1,5.2-3.8,8.3c5,1.1,9-1.8,13-3.7c2.1-1,3.9-1.4,5.9-1.3l-0.1-0.1
	c-1.9,4.3-6.3,6.9-8.5,11.1c-0.5,1-3.5,1.5-3.7,2.6c-1,0.5,0.6,0,0.2-0.7c-0.8-0.3-0.8-0.9-0.6-1.6c0.3-1.2,3.3-1.2,1.6-3.3
	c-1.3-1.7-2.9-0.2-4,0.2c-2.7,1-5.7,1.3-8.1,3c-1.1,0.8-2.7,0.9-3.7-0.1c-1.3-1.3,0.6-2,1-2.8c2.6-4.2,4.7-8.8,8.1-12.4
	C570.3,688.4,571.5,687.7,571.9,689.7z"/>
<path class="st1" d="M848.5,1094.9c-3.1,0-6.6-4.2-6.4-7.7c0.1-2.5,4.8-7.3,6.8-7.1c1.5,0.1,7.6,6.1,7.6,7.5
	C856.6,1091,852.3,1094.9,848.5,1094.9z"/>
<path class="st1" d="M820,1087.9c1.3,4.6-3.2,5.1-5.9,6.4c-1.9,0.9-6.8-4.3-6.8-6.6c-0.1-2.2,4.2-7.6,6.1-7.7
	C816.2,1079.9,820,1084.1,820,1087.9z"/>
<path class="st1" d="M676.7,1120.1c3.6-0.1,6.5,2.8,6.5,6.4c0.1,4.2-2.1,6.4-6.2,6.6c-2.4,0.1-7-4.3-6.8-6.6
	C670.3,1124.2,674.4,1120.1,676.7,1120.1z"/>
<path class="st1" d="M681.4,734.8c4.6,0.1,9.4,5.7,7.8,9.6c-0.7,1.8,2.8,4-0.6,4.9c-3.3,0.9-2.3-2.9-3.9-4.2
	c-1.8-1.4-3.9-2.2-5.6-3.7c-1.3-1.3-2.9-2.4-2-4.6C678,734.8,679.8,734.7,681.4,734.8z"/>
<path class="st1" d="M754.1,1105c-0.2,4.7-2.4,7.2-5.3,7.4c-3.9,0.2-4.9-3.8-6-6.8c-0.4-1.2,5.3-6.7,6.4-6.1
	C751.9,1100.8,754.4,1102.5,754.1,1105z"/>
<path class="st1" d="M473.7,988.2c-2.2,0.2-1.5,0.7-2.7,0c2.1-5.8,58-59.4,64-78.1c0.8,2.6,0.8,5.2,0,7.8
	C527.6,932.6,475.5,987.9,473.7,988.2z"/>
<path class="st1" d="M733.6,784.9c3.6,9.5,2.8,18.4,0.3,28.6c-0.6,2.5-1.8,4.6-3.6,7.7c0.5-4.5,2.3-11.7,2.2-15.1
	c-0.2-6.5,0.5-10.7-2.1-17c-0.2-1.7-0.6-3.8,2.1-4C732.8,784.5,733.2,784.5,733.6,784.9z"/>
<path class="st1" d="M1048,940.9c-5.3-5.7-23.3-35.4-24-43.4c0,0,17.3,28.8,19.5,31.3c3.5,4.1,60.5,62.9,63.6,67.3
	c1,1.5,2.2,6.8,0.5,6.5C1105.8,1002.3,1048.9,942.4,1048,940.9z"/>
<path class="st1" d="M993.3,706.9c-1.3-5-5.5-7.9-8.3-11.9c-0.4-1.8,0.9-1.9,2.1-2.1c3.5,0.3,6.2,2.7,9.1,4.1c3.7,1.9,4.8,1,5.9-2.1
	c1.8,2.8,1.7,4.9-1.9,5.9c-1.7-1.1-3.2,0.2-4.5,0.8c-2.9,1.4-0.7,2.4,0.5,3.3c-0.3,0.9-0.9,1.5-1.6,2.1
	C994,707.2,993.6,707.2,993.3,706.9z"/>
<path class="st1" d="M887.2,742.5c-0.1,2.4-1.4,4.2-4.3,3.3c-2.5-0.8-4.7-1.3-7.2-0.1c-1.1,0.5-2.1-0.3-2.4-1.2
	c-0.5-1.6,0.9-1.3,1.8-1.5c0.4-0.1,1.1-0.2,1.1-0.5c1.1-4,1.1-4,4.2-4.9C883.1,736.6,887.1,739.3,887.2,742.5z"/>
<path class="st1" d="M657.1,1018.8c0.4-3.1,2.2-5.8,5.4-5.7c2.6,0.1,4.7,2.4,4.5,5.6c-0.2,3-2.2,5.2-5,5.1
	C659.9,1023.6,656.3,1023.1,657.1,1018.8z"/>
<path class="st1" d="M718.9,1113.8c2.6-0.9,3.1,1.6,4,3.8c-3.1,1,1.5,6.7-4.1,6.4c-3.5-0.2-6.2-2.1-6.4-4.9
	C712.1,1116.1,714.7,1114,718.9,1113.8z"/>
<path class="st1" d="M696.3,1033.8c3.8,2.6,4.1,5.5,0.8,9.2c-2.4,1-4.7,0.9-7.1-0.1c-1.3-3.4-2-6.7,1.9-9
	C693.4,1033.4,694.8,1033.1,696.3,1033.8z"/>
<path class="st1" d="M660.3,1061c-2.8,0.2-4.4-0.9-4.5-3.9c-0.1-3.4,1.8-4.4,4.8-4.1c2.5,0.2,6.2,0.1,6.1,3.3
	C666.7,1059.3,664,1061.3,660.3,1061z"/>
<path class="st1" d="M827.7,1126.9c-3.6,0.3-4.8-1.5-4.7-4.5c0.1-3.1,2.6-5.2,4.9-5.1c3.3,0.1,4.2,4.1,4.6,6.5
	C832.9,1125.8,830.1,1127.4,827.7,1126.9z"/>
<path class="st1" d="M943.7,1126.9c-2.9,0.3-5.1-0.9-5.3-3.9c-0.2-3.3,2.7-5.4,5.1-5.6c1.3-0.1,4.8,2.2,4.7,5.4
	C948,1125.7,946.6,1127.2,943.7,1126.9z"/>
<path class="st1" d="M888.9,1077c3.6-0.5,4.7,2.8,4.7,4.7c0,2.4-2.5,5.1-5,4.9c-1.9-0.2-5-1.2-4.6-4.9
	C884.3,1078.4,885.6,1076.8,888.9,1077z"/>
<path class="st1" d="M931.4,1034.8c2.6,0.9,5,2.1,4.2,4.8c-0.7,2.1-0.6,5.9-4.4,5.3c-2.8-0.4-3.9-3.1-4-5.7
	C927.1,1036.5,929.3,1035.5,931.4,1034.8z"/>
<path class="st1" d="M632.1,1066.8c1.3,2.9,1.4,5.7-3.4,5.2c-3.1-0.3-4-2.5-3.7-5.4s1.8-4.7,4.8-4.4
	C631.8,1062.6,633.7,1063.7,632.1,1066.8z"/>
<path class="st1" d="M903.2,1139c0,3.6-1.1,5.6-3.9,5.7c-3.3,0.1-3.9-3.5-3.9-5.2c0-2.1,2.1-4.7,4.9-4.5
	C903.2,1135.2,903.3,1137.7,903.2,1139z"/>
<path class="st1" d="M902.1,1021.8c0.9,2.7,1.5,5.7-3.3,5.3c-2.4-0.2-4.3-1.6-3.7-4.2c0.6-2.7,2.3-5.3,5.3-5.4
	C901.9,1017.5,903.8,1019.1,902.1,1021.8z"/>
<path class="st1" d="M910,1101.9c3.7,0.5,3.8,3.1,2.5,5.4c-1.2,2.2-4,2.8-6,1.1c-1.1-0.9-4.8-2.3-1.9-4.4c1.5-1.1,0.6-7.9,5.4-3.1
	c-0.3,0.2-0.5,0.5-0.4,0.8C909.6,1101.9,909.8,1101.9,910,1101.9z"/>
<path class="st1" d="M1000.1,700.8c2.4-1.4,1.9-3.7,1.9-5.9c0.4-0.7,0.7-1.3,1.1-2l-0.1,0.1c0.1-4.1,8.8,8.7,7.7,10.5
	c-1.1,1.9-4.1,0.4-5.6,0.1C1002.9,702.9,1001.7,702.7,1000.1,700.8z"/>
<path class="st1" d="M876,1116.3c0.3,2.2-0.9,3.4-2.4,4.2c-1.2,0.6-2.9,0.8-3.7-0.4c-1-1.4-1.9-3.1-1.9-5c0-0.3,0.7-0.9,0.9-0.9
	c1.9,0.8,3.7,1.8,2.6-1.8c-0.1-0.2,1.5-0.6,2.2,0C875.1,1113.4,876.4,1114.5,876,1116.3z"/>
<path class="st1" d="M1055.4,655.3c-1.6,2.2,0,1.5-0.5,3.8c-1.1-6.6-4.3-12.6-5.9-19.1c0-1.3-0.4-3.7,1-3.8
	C1050.3,637.5,1055.7,651.1,1055.4,655.3z"/>
<path class="st1" d="M953,1078.3c0.5,2.9-0.7,3.8-3.3,3.7c-2.4-0.1-4.5-0.8-4.6-3.4c-0.1-2.3,2-4.3,4-4.3
	C951,1074.3,954.2,1074.9,953,1078.3z"/>
<path class="st1" d="M633.9,556.8c0.4,1,6.4,0.6,6.8,1.6c-4.8,1.6-12.7,3.2-15.5,5.5c-1.5,0.3-3.2,1.5-4.1-0.9
	C625.4,561,629.6,558.9,633.9,556.8z"/>
<path class="st1" d="M1013,731.7c-3.5-3.3-6.8-6.8-8.2-11.7c0.4-0.5,0.8-0.6,1.2-0.1c2.1,1.7,5.4,2.3,4.2,6.5
	C1009.8,727.7,1014.2,731,1013,731.7z"/>
<path class="st1" d="M677,1090.7c0.8-1.7,1.7-2.8,3.7-2.7c2,0.1,2.4,1.1,2.4,2.8c0,2.1-1.4,2.2-3,2.2
	C678.5,1093,677.5,1092.2,677,1090.7z"/>
<path class="st1" d="M856.6,1047c-0.9,1.5-1.6,3-3.6,2.9c-1.3,0-2.8,0.2-2.9-1.8c0-1.9,1.4-2.6,2.8-3.1
	C854.6,1044.4,855.5,1046,856.6,1047z"/>
<path class="st1" d="M1005.1,696.2c-4.3-0.6-23.5-23.3-26.6-26.8c4.2-0.9,25.6,21.9,27.7,25.2C1006.2,694.7,1005,696,1005.1,696.2z"
	/>
<path class="st1" d="M710.5,1078.7c-3.2,0.4-3.8-0.9-4.1-2.2c-0.4-1.7,0.7-2.4,2.2-2.6c1.4-0.1,2.9,0.3,3,1.9
	C711.7,1077.3,710.9,1078.7,710.5,1078.7z"/>
<path class="st1" d="M571.9,689.7c-0.7-0.9-1.7-0.7-2.7-0.7c1.9-3,15.8-19.9,23.8-21.2C588.1,674.6,573.9,687.5,571.9,689.7z"/>
<path class="st1" d="M1013.9,729c2.1,2.7,4.8,5.1,5.1,8.8c-0.4,0.8-1,1.1-1.9,1.2C1016.4,736.2,1012.8,729.6,1013.9,729z"/>
<path class="st1" d="M535,917.7c0-2.6,0-5.2,0-7.8c0.3-2-0.6-4.3,1.4-7C538,908.6,535.6,913.1,535,917.7z"/>
<path class="st1" d="M621.1,563.1c1.1,1.3,2.7,0.7,4.1,0.9c-4,0.5-6.9,4.1-11.2,3.9l0,0C615.4,565,618.6,564.5,621.1,563.1z"/>
<path class="st1" d="M923.4,1076.1c-0.7-1-1.7-2.1,0.6-2.2c1.7-0.1,3.3,0.9,3.2,2.4c0,1.1-1.3,2.7-3,2.6
	C920.9,1078.8,923.5,1077.1,923.4,1076.1z"/>
<path class="st1" d="M998.1,669.9c1.3-0.2,2.5-0.3,3.8-0.5c3.6-0.4,4.7,1,3.3,4.3C1002.8,672.5,1000.4,671.2,998.1,669.9z"/>
<path class="st1" d="M368,1022.9c-1.7,1,0.3,2.8-0.9,3.9c-1.2-0.5-2.2-1.2-2.1-2.8c-0.9-2.1-0.5-3.6,2-4.1
	C368.3,1020.6,368.9,1021.5,368,1022.9z"/>
<path class="st1" d="M971.1,1103.1c0.6,1.6,2.1,3.5-0.3,4.6c-1.4,0.7-3.3,0.8-3.9-1.6C970,1107.3,968.7,1102.7,971.1,1103.1z"/>
<path class="st1" d="M998,686.9c-2.5-0.8-4-2.7-5-4.9c-0.3-0.4-0.3-0.8,0.1-1.2c2,2,4,4.1,6,6.1C998.8,687.2,998.4,687.3,998,686.9z
	"/>
<path class="st1" d="M1009,700c-1.8,0.1-3.6,0.2-5.6,0.4c0.4-2.7,4.9-0.8,3.6-4.2C1008.6,696.9,1008,698.8,1009,700z"/>
<path class="st1" d="M690.1,1042.9c2.3,0.5,4.7-1,7.1,0.1C694.7,1046.7,692.4,1044.1,690.1,1042.9z"/>
<path class="st1" d="M512.9,1326.9c1,0.1,2,0.3,1.9,1.7c-0.1,1.1-1,1.2-1.8,1.3C512.3,1329,509.3,1328.1,512.9,1326.9z"/>
<path class="st1" d="M356.8,1175.1c1.5-1.4,2.2,0.2,3.2,0.9c-0.4,1-0.7,2.1-1.1,3.1C356.6,1178.6,357,1176.7,356.8,1175.1z"/>
<path class="st1" d="M1001,690c2.5-0.2,1.9,1.6,2,3l0.1-0.1c-1.1,0.1-2.5,0.7-3.1-0.5C999.7,691.9,1000.6,690.7,1001,690L1001,690z"
	/>
<path class="st1" d="M696.3,1033.8c-1.4,0.9-2.9,1.2-4.4,0.1C693.3,1032,694.7,1030.5,696.3,1033.8z"/>
<path class="st1" d="M1054.9,725c0.7,0.7,1.5,1.3,2.2,2c0.3,0.2,0.3,0.4,0.2,0.6c-0.1,0.2-0.2,0.2-0.3,0.2c-0.4,0.4-0.7,0.8-1.1,1.2
	C1052.4,728.5,1055.6,726.2,1054.9,725z"/>
<path class="st1" d="M898.5,1054.1c-0.5,0.8-1.3,0.9-2.1,0.7c-0.8-0.1-1.3-0.7-0.8-1.3c0.3-0.4,1.2-0.5,1.8-0.5
	C897.9,1053,898.6,1053.2,898.5,1054.1z"/>
<path class="st1" d="M998,686.9c0.4,0,0.7,0,1.1,0c1.1,0.7,2.2,1.5,1.9,3.1l0.1-0.1C998.7,690.3,997.7,689.3,998,686.9z"/>
<path class="st1" d="M995.8,700.6c-2.4-2.4-3.3,5.7-3,5.7c0.7,1.3,40.1,56.6,40.8,57.9c-0.4,0,4.8-0.7,4.9-0.7c0,0,0,0,0,0
	c-1.7-1.2-34.6-52.8-36.2-54.4C1002.4,709.1,997.3,702.1,995.8,700.6z"/>
<path class="st1" d="M684.1,521c-0.4,1.7,1.6,2.4,1.6,4.2c-1.7-0.2-2.7-0.7-2.7-2.5C682.9,521.9,683.1,521.2,684.1,521z"/>
<path class="st1" d="M552.9,1031.9c0.8,0.1,1.8,0,1.6,1.2c-0.1,0.4-1,0.5-1.5,0.8c-0.8-0.1-1.8-0.1-1.6-1.2
	C551.5,1032.4,552.4,1032.2,552.9,1031.9z"/>
<path class="st1" d="M998,706.9c-1.3,0-2.6,0-3.9-0.1c0-1.3,0.8-1.9,2-2C996.7,705.6,997.3,706.3,998,706.9z"/>
<path class="st1" d="M910,1101.9c-0.1,0.7,0.1,1.8-1.1,1.7c-0.3,0-0.7-0.6-0.8-1c-0.2-1.3,0.8-1.5,1.8-1.8
	C910,1101.2,910,1101.6,910,1101.9z"/>
<path class="st1" d="M993.1,680.7c0,0.4-0.1,0.8-0.1,1.2c-1.7-0.3-2.5-1.5-3-3.1v0.2C991.6,678.6,992.3,679.7,993.1,680.7z"/>
<path class="st1" d="M988.1,676.7c0-0.2-0.1-0.4-0.1-0.5c1.4,0.4,2.3,1.2,2,2.8l0.1-0.1C988.5,678.9,988,678.1,988.1,676.7z"/>
<path class="st1" d="M995,993.9c0,0.9,0.4,2-0.6,2.5c-1,0.4-1.2-0.6-1.4-1.3C993.6,994.7,994.3,994.3,995,993.9z"/>
<path class="st1" d="M781,475.9c1.8,6.7,2.8,13.6,4.3,20.7c1.3-4.6,3.3-9.2,3.7-13.9c0.6-6.6,3.2-12.6,4.4-18.9
	c1.3-6.4,4.2-12.7,4.9-19c0.8-6.9,4.1-12.6,5.6-19.1c1.6-6.6,4.7-12.7,8-18.6c5-8.9,10.4-17.2,18.9-23.6c5.3-4,10.5-8.3,16.3-11.5
	c6.6-3.7,14.1-5.8,21.4-5.9c8.2-0.2,16.2-3.9,24.4-2.1c14.4,3.1,28.9,0.9,43.4,3.1c-5.4,0-10.9-0.6-16.2,0.1
	c-8.4,1.1-16.8,1.7-25.2,4.1c-6.8,2-13.6,3.7-20.1,6.6c-10.3,4.6-18.6,11.6-24.9,20.8c-4.4,6.3-6.9,13.6-9.2,20.8
	c-0.6,1.8,0.8,4.1-2.7,3.9c-0.3,0-0.8,1-0.9,1.5c-2,13.1-8.7,24.5-12.9,36.8c-2.7,7.9-5.6,15.8-7.6,23.8c-2.5,9.8-2.5,9.8-7.9,17
	c-3.8,5-7.8,10.3-9.7,16.5c-0.6,1.9-4.5,2.7-2,5.7c-4-0.3-0.4,7-5.9,4.8c-0.4-1.6,0.5-3.5,1.1-5.7c1.7-6.1,3.6-12.2,5-18.5
	c1.1-5,3.3-10.2,5.1-15.3c2.5-7.3,5.2-14.5,7.7-21.8c1.9-5.7,4.3-11.3,5.8-17.3c0.8-3.3,1.1-6.7,2.3-9.9c0.3-1.3,1-2.4,1.5-3.5
	c0.6-1.1,1.4-2,1.7-3.4c-1.4,0.3-1.9,1.5-2.7,2.1c-1.3,1.1-1.8,3-3.4,3.8c-5.9,13.6-12.3,26.8-16.7,41c-1.9,6.2-2.8,12.6-4.7,18.6
	c-2.2,6.8-4.5,13.7-6.8,20.5c-0.5,1.4-3.5,0.6-4,3c0-1.4-0.1-2.8,0-4.2c0.5-5-1.5-9.4-3.6-13.7c-1-2-0.1-4.2-0.9-6.5
	c-1.9-5.3-4.6-10.5-5.7-15.9c-1.8-9.3-6.8-17.3-9.2-26.4c-2.1-7.8-6.3-15.1-11.7-21.5c-3.4-5-8.1-8.5-14.2-11c3.8,3.4,8.1,5,11.4,8
	c-0.4,5.1,2.3,9.3,3.9,13.9c2.2,6.3,6.1,12.2,7.1,18.6c1.9,12.5,8.4,23.3,11.4,35.4c1.2,5,3.3,10.1,5.5,14.8c1.1,2.2,0.8,4.1,1,6.1
	c0.2,1.8-0.2,3.6,1.6,5c3,2.3,0.6,3.4-0.8,4.8c-4-7.8-8.4-15.2-12.7-22.6c-3.2-5.5-8.4-9.6-10.8-15.4c-1.6-3.8-2.6-8-2.9-12.1
	c-0.3-5.1-3.1-9.2-3.9-14c-0.2-0.9-1.3-1.4-2.4-1.5l0.1,0.1c0-1,0-2,0-3c0.1-0.7,0.1-1.3-0.1-2c-1.9-7.7-5.7-14.6-8.6-21.9
	c-1.7-4.4-2.9-9.1-4.8-13.1c-3-6.2-4.5-12.9-7.6-19.1c-2.6-5.2-5.1-10.5-9.6-13.8c-4.6-3.4-6.8-10.5-14.2-9.8
	c-3.5-6-10.2-6.3-15.6-8.5c-5.1-2.1-10.7-3.4-16.5-3.9c-4-0.4-8-1.4-12-1.9c-6.5-0.8-13-0.9-19.5-1c-0.6,0-1.3-0.2-2.1-0.4
	c1.5-1.3,3-0.8,4.4-0.8c15.3-0.1,30.7-1.4,45.9-1.3c13.7,0.1,28.1,1.6,40.7,9.2c7.8,4.7,15.1,10,20.7,17c2.8,3.4,5.4,7.3,8.3,10.5
	c4.7,5.2,5.4,12,8.5,17.7c3.3,6,5,13,7.2,19.6c4,11.8,7.2,23.6,8,36.1C779.4,475.5,780.1,475.9,781,475.9L781,475.9z"/>
<path class="st1" d="M1238,867.9c1.6,5.5,6.2,9.4,8.1,14.9c0.7,2,2.1,3.7,2.1,5.9c0,0.9,0.8,2.7-1,2.5c-1.1-0.1-2.6-0.2-3.1-1.9
	c-2.2-6.9-6.6-12-12.1-16.9c-3.5-3.1-5.2-8.6-9.1-11.8c-6.7-5.4-13-11.2-19-17.4c-1.8-1.9-4.4-1.7-6.6-2.9
	c-9.4-5.2-17.4-12.8-27.5-16.8c-11.1-4.4-21.1-11.1-32-15.6c-8-3.4-15.9-6.7-23-11.7c-7.3-5-13.9-10.8-20.4-17
	c-8.4-8-13.8-18.2-21.2-26.8c-0.6-0.7-0.7-1.8-1.2-2.6c-2.2-3.6,0.1-8.2-2.6-11.8c-0.5-0.7,0.6-2.7,0.9-4.1c1.5,0.5,3.7,0.6,4.5,1.6
	c5.1,6.9,13.1,8.8,20.2,12.4c5.6,2.8,11.9,2.9,17.8,4.7c5.6,1.7,11.3-2.2,17.2-2.2c4.5,0,8.3-2.6,12.2-4.6c1.4-2.3,3.9-2.3,6.1-3
	c3.4,4.5,7.4,8.3,11.8,11.7c5.5,4.3,11.2,8.3,16.9,12.4c0.4,0.3,0.9,0.4,1.2,0.8c7.5,8.3,17.6,14.1,24.5,22.7
	c7.6,9.4,15.7,18.5,22,29c3.9,6.4,8,13,11,19.7c3.1,6.9,7.6,13.2,9.5,20.7c0.9,3.5,2.7,6.5,4.2,9.6c1.5,3,0.8,4.5-1.4,6.4
	c-2-3.4-3.9-6.5-5.6-9.8c-0.7-1.4-2-0.8-3-1.2c-0.4-1,0.1-2.4-0.9-3.2c-4.3-3.4-6.3-8.6-10.3-12.2c-0.8-1-1.3-2.3-2.3-3.2
	c-0.8-1.1-1.6-2.1-2.6-3c-4.6-3.1-6.9-8.9-12.9-10.4c-1.9-0.5-1.4-3.8-3-5.5c-5.5-5.8-12-10.5-17.9-15.9s-13.2-8.9-19.3-14
	c-2.8-2.3-5.4-5-9.3-5.5c-2-0.2-2.7-2.4-4.1-3.5c-7.2-5.1-15.5-8.5-22.4-14.1c-1.1-0.9-2.7-1.3-4.1-1.5c-0.5-0.2-0.9-0.4-1.2-0.8
	c-0.1,0.3,0,0.5,0.4,0.7c4,1,6.8,4.1,10,6.2c6.3,4.1,12.9,7.8,18,13.4c10.2,6.9,19.5,15,29,22.7c11.9,9.8,24.2,19.3,34.5,30.8
	c0.8,0.9,1.7,1.6,2.7,2.2c5.3,4.2,8,10.6,12.7,15.3C1237.3,864.7,1237.5,866.4,1238,867.9z"/>
<path class="st1" d="M1218,615.9c3.5,5.9,9.6,9.4,13.6,14.8c3.6,4.9,7.8,9.3,12.2,13.5c0.9,0.9,2.2,2.1,0.8,3.3
	c-1.2,1-2.1-0.1-2.8-1.1c-4.7-6.6-12.1-9.9-18.3-14.5c-9.7-7.2-19.5-14.5-30.9-19.2c-5.6-2.3-10.6-6.1-16.1-8.9
	c-5.2-2.6-11.4-2.8-16.3-5.9c-13.3-8.6-28.4-12.9-42.8-18.9c-5-2.1-9-5.7-13.3-8.7c-5.5-3.8-10.4-8.7-17.1-10.3
	c-2.5-0.6-2.1-2.9-3.9-4c-10-6-19.6-12.8-29.8-18.3c-7-3.7-14-7.4-20.6-11.7c-6.4-4.1-13.5-6.7-20.3-10c-1.1-0.5-2.5-1.1-1.8-2.3
	c0.4-0.8,2.3-1.6,3-1.3c5.3,2.8,11.5,1.5,16.8,3.8c1.3,0.5,2.2,0.6,3.1-0.3c0.6-0.6,1.5-1.2,2.2-0.7c4.9,4.3,11.4,3.2,16.9,5.3
	c3.8,1.4,7.9,1.1,11.9,1.8c6.3,1.1,11.6,5.3,17.9,5.7c5.2,0.3,8.7,4,13.4,5.5c8.4,2.7,16.8,6.1,24.3,10.6c6.5,4,13.2,8,19.7,11.7
	c9.1,5,16.1,12.3,24.8,17.8c6.4,4.1,12.1,9.8,18.4,14.3c6.9,4.9,13.2,10.6,19.9,15.8c4.4,3.4,9.2,6.5,12.7,10.9
	C1216.2,615.4,1217,615.9,1218,615.9L1218,615.9z"/>
<path class="st1" d="M1047.2,485.4c6.5-2.5,13.1-3.5,18.2-6.2c7.2-3.8,14.8-4.3,22.1-6.2c8.4-2.2,17-4,25.3-6.4
	c4.9-1.4,9.5-3.3,14.7-2.8c9.3,0.9,18.1,3,26.8,7.1c9.3,4.4,14.3,12.1,19,20c2.9,4.8,4.8,10.6,4.6,16.7c-0.3,8.7-0.1,17.3-0.1,26
	c0,0.8-0.2,1.7,0,2.5c0.5,2.3-2,3.3-2.3,5.2c-1.8-1.2-4.4-1.1-5.6-3.3c-0.5-0.8-0.6-2.1-1.2-2.6c-6.3-4.2-9.2-11.3-10.2-17.5
	c-0.8-5-4.2-5.7-6.2-8.4c-1.2-1.6-1.1-3.4-1.9-5c-3.3-7-9.5-11.7-15.1-16.6c-2.6-2.2-7.1-0.6-10.7-0.7c-2.8-0.1-4.8-0.2-6.4-3.4
	c-1.6-3.1-4.6-5.6-7.3-7.9c-2.7-2.4-7-1.1-10,3.2c-2.6,3.7-5.3,7.3-7.5,11.3c-3.2,5.9-10.4,6.9-17.9,3.3
	C1066.9,489.3,1057.7,486.6,1047.2,485.4z"/>
<path class="st1" d="M1318.7,962.2c-3.4-2.4-2.7-6.4-3.4-9.8c-1.7-8.5-4-16.9-6.3-25.2c-2.2-7.7-4.9-15.6-8.2-23.2
	c-3.6-8.3-7.3-16.9-10.4-25.6c-1.4-3.8-3.5-7.8-6.8-10.8c-4.8-4.3-5.5-10.3-5.8-16.3c-0.1-2.5-0.2-4.6-1.8-6.9
	c-2.8-4.2,3.6-3.5,3.9-6.2c3.9,1,4.5-2.6,5.9-4.5c3-4.1,3.7-4,6.3,0.2c5,8.2,9.8,16.8,12.1,26c2,7.9,4.5,15.7,6.7,23.6
	c2.4,9,5.1,17.9,7.6,26.8c0.1,0.5,0.3,0.9,0.4,1.4c0.6,15,2.8,29.9,2,45C1320.9,959.1,1319,960.4,1318.7,962.2z"/>
<path class="st1" d="M251.1,962.9c0-12.9-0.6-25.1,0.2-37.1c0.7-10.6,2.3-21.2,5.1-31.4c1.5-5.6,2.9-11.5,5.2-17
	c1.7-4,2.5-8.7,4.3-12.9c3.9-8.8,5.2-18.7,10.6-26.9c1.4-2.1-1.1-5.8,3.1-6.9c1.9-0.5,2.5-0.9,3.7,1.3c2.3,4,5,7.9,10.1,8.9
	c0.7,0.1,2.9-0.5,1.5,1.7c-3,4.9-1.9,10.7-3.5,16.1c-1.5,5-4.4,9-6.7,13.3c-5.6,10.4-11,20.8-15,32c-3,8.4-5.8,16.8-8.2,25.3
	c-2.2,7.8-5.4,15.2-6.1,23.5C255.2,955.5,255.3,960.1,251.1,962.9z"/>
<path class="st1" d="M401.9,1158.9c-3.7,1.7-4.8,5.5-6.7,8.5c-4.6,7.7-9.4,15.3-9.7,25.1c-0.1,2.8-1.3,6.2-1.5,9.4
	c0,0.8-0.1,1.7-1.2,1.9c-1,0.1-1.5-0.5-1.7-1.4c-1.1-4.2-2.4-8.4-3.1-12.6c-0.5-2.9-0.2-6-0.1-9c0.5-12.7,2.8-25,6.1-37.3
	c2.4-9,6-17.7,7-27.1c0.4-3.4,1.8-7,3.6-10c1.5-2.5,2.3-4.9,2.9-8.1c2.6,2,4.5,4.6,4.3,7.2c-0.5,6.7,2.7,12.9,1.7,19.6
	c-0.5,3.3,2.4-0.1,3.5,1.4c-2.3,2.5-2.2,4.7,0.5,7.2c1.8,1.7,2.7,4.4,3.7,6.7c0.9,2.2,1,4.4-1.2,6.3c-1.8,1.6-3.4,3.5-5.1,5.3
	c0,0.7-0.2,1.3-0.5,1.9C403.7,1155.6,403.2,1157.4,401.9,1158.9z"/>
<path class="st1" d="M1188.6,1203.1c-2.6-15.9-8.3-30.3-18.1-43.3c-3.7-5-7.5-10.2-10.5-15.5c-2.1-3.7,1.4-7.7,3.2-11.4
	c2.4-5,5.6-9.6,5.7-15.6c0.1-6.2,0.1-12.7,3.4-19c2.7,5.8,5.2,11.2,7.1,17c1.6,4.7,3.3,9.2,4.3,14.1c1.5,7.4,3.5,14.7,5.1,22.1
	c2.8,12.9,3.6,26,3.2,39.2C1192.1,1195.2,1190.6,1199.3,1188.6,1203.1z"/>
<path class="st1" d="M1320.1,784.8c2.3,3.5,3.8,7.8,7.2,10.5c3.1,2.4,5.4,5.2,7.4,8.6c1.8,3.1,5.5,4.8,7.6,7.9
	c5.8,8.5,13.8,14.9,21.3,21.7c1.1,1,4.9-1.8,3.2,2c-1.1,2.5-3.7,2.4-6.1,2.3c-5.4-0.3-10.3-3-15.1-4.8c-5-1.9-9.7-5.5-14.4-8.7
	c-4.7-3.2-8.6-7.1-12.8-10.8c-4.1-3.5-7.9-7.3-12.1-10.7c-4.1-3.4-6.7-6.7-4.4-12.5c3.2-8.3,2.5-17.5,5.6-25.8
	c2.7,4.7,4.9,9.6,8.2,14c0.9,1.2,2,1.6,3.4,1.7C1320.5,781.4,1318.6,783.5,1320.1,784.8z"/>
<path class="st1" d="M440.1,742.8c-8.3,0.7-15.6-1.9-23.1-3.2c-4.1-0.8-5.8-5.1-8.2-8.2c-0.8-1-1.6-2.1-2.4-3c-1-1.1-3-1.8-2.1-3.5
	c1-2,3.3-0.9,5-0.8c7.2,0.4,14,3.1,21.4,3c5.5-0.1,10.9,3.1,16.4,1.7c7.4-2,15.1-0.5,22.4-3.3c2.5-1,5.8,0.3,8.4-0.5
	c8.6-2.4,17.7-3.8,24.2-11c2.7,3.1,4.3-1.6,6.5-1c1.7,0.5,1.7,2.6,0.9,3.2c-3.9,2.9-4.2,7.6-5.9,11.5c-1.4,3.1-3.6,4.4-6.2,5
	c-7.6,2.1-15.2,3.8-22.6,6.7c-4.6,1.8-10.1,0.9-15.2,1.2C452.8,741,446.5,744.5,440.1,742.8z"/>
<path class="st1" d="M439.8,1188.7c-0.9,9.2,1.5,18.2,2.7,27c1.5,11.3,2.4,22.9,5.1,34.2c2.1,8.8,3.4,17.9,5.8,26.6
	c2.4,8.9,3.4,18.7,9.6,26.1c4,4.8,3.4,11.6,8.1,15.8c0.3,0.3,0.3,1,0.7,1.3c8.2,6.3,11.8,16.5,19.9,22.9c1.7,1.3,3.1,2.7,5.1,3.7
	c1.9,1,2.3,3.2,1,4.7c-1.3,1.6-2.4-0.3-3.1-1.1c-5.2-6-12-10.1-17.6-15.7c-2.9-2.9-6.4-5.5-9.6-8.3c-6-5.2-8.6-12.5-12.2-19.2
	c-5-9.2-8-19.1-10.6-29c-1.6-6.3-2.8-13-4-19.6c-1.2-7.1-2.4-14.3-4-21.3c-2.7-12.4-5.8-25-2.4-38
	C435.1,1195,437.5,1192,439.8,1188.7z"/>
<path class="st1" d="M1387.3,830c-9.8-1-18-6.4-25.3-12c-10.1-7.7-19.1-16.9-27-27c-3.8-4.8-6.8-10.1-11.3-14.4
	c-1.3-0.6-4.3-6.1-5.3-7.7c-2.1-3.4-5.3-6.1-7.3-9.5c-4.6-7.9-7.2-16.5-9.6-25.3c-3.4-12.4-7.4-24.5-14.9-35.1
	c-2.2-3.2-3.3-6.9-5.6-9.9c-0.4-0.6-0.4-1.4,0.1-1.9c6.2-7.6,6.9-17,8.2-26.1c1-6.7-2.4-12.7-2.7-19.1c-0.1-3-0.8-5.9-1.8-8.8
	c-2.9-9.2-6.3-18.2-8.9-27.5c-1.7-6-4.1-11.8-7.1-16.8c-6.2-10.5-10.6-22-18.4-31.7c-6-7.6-11.5-15.7-17.8-23.2
	c-1.9-2.3-5-3-6.6-5.2c-5.3-7.4-12.8-12.5-19.4-18.5c-6.9-6.3-12.4-12.8-15.9-21.7c-4.3-10.6-12-19.1-22.5-23.8
	c-11-5-22.4-9.6-34.9-9.1c-1,0-1.9-0.1-2.8-0.5c-7.8-3.4-15.8-6.6-23.4-10.4c-10.3-5.2-21-9.3-31.8-12.9c-11.9-4-24.2-7-36.4-10.3
	c-8.7-2.4-17.6-3.5-26.3-5.3c-6.1-1.3-12.5-1.7-18.6-3.1c-9.1-2.1-18.4-2.7-27.5-4.1c-15.2-2.4-30.6-1.4-45.9-1.1
	c-15,0.3-29.5,2.2-43.3,9.2c-9.7,4.9-17.8,11.5-25.6,18.6c-7.3,6.6-14,13.9-19.1,22.5c0.7-4.5,1.1-8.9,2.8-13.1
	c2.5-6,5.7-11.6,8.3-17.5c4-8.9,9.6-16.7,16.5-23.5c9.5-9.4,21.5-14.3,34.2-17.7c5.1-1.3,9.9-4.2,14.9-5.2
	c10.6-2.3,21.2-4.9,32.2-5.6c9.1-0.6,18.2-0.3,26.8,1.2c9.2,1.6,18.5,2.8,27.6,6c10.1,3.6,20.5,6.3,30.8,9.4
	c3.1,0.9,5.2,3.6,8.4,4.3c9.1,2.2,17.2,7,25.7,10.5c7.5,3.1,14.1,7.7,21.3,11.9c2.6,1.5,19.6,10.7,20.9,10.9
	c1.4-1.8-15.7-16.3-17-17.1c-7.5-4.6-23.8-16.8-25.9-17.2c-1.3-1.9-4-2.3-5.2-4.2c1-1.5,2.3-1.8,3.6-2c6.9-1.2,13.9-2.8,19.6-6.3
	c11.9-7.4,23.9-15.1,26.1-31.2c0.7-5,2-9.9,1.7-15c-0.1-1.6,0-3.7-2.1-4c-1.9-0.2-1.9,1.9-2.5,3.2c-2.8,5.4-2.9,11.7-6.9,16.9
	c-7.1,9.2-14.7,17.6-25.9,21.7c-13.3,4.9-27.2,6-41.2,4.8c-3-0.2-6.1-0.6-8.8-2.9c6.9-0.7,13.7,0.8,20.2-1.1
	c12.7-3.7,25.8-6.3,37.4-13.3c10.9-6.6,20.6-14.1,25.1-26.5c1.1-3.9-1.2-4.6-4.3-4.3c-1.4,0.2-2.4,1-3.4,2
	c-7.3,7.2-15.2,13.6-23.9,19.4c-11.3,7.5-23.6,11.1-36.7,12.9c-11.1,1.6-22.1,1.2-33.3,0.2c-15.5-1.4-31-3.5-46.4-5.7
	c-4.1-0.6-8.3-0.3-12.2-1.2c-7.4-1.9-15.1-2-22.6-2.9c-13.3-1.7-26.9-1.5-40.4-1.4c-13.9,0.1-27.3,0.5-40.1,7.6
	c-10.1,5.6-19.4,12.3-26.3,20.9c-11.8,14.5-19.1,31.8-22.6,50.4c-1.5,8-3.1,15.9-5.1,23.9c-0.1-5.8-2.4-11.3-2.8-17
	c-0.3-4-0.5-8-1.7-11.8c-3.4-11.5-8.3-22.4-14.2-32.9c-1.6-2.8-2.8-6.1-6-7.8c-0.3-0.1-2.2-4.2-3.7-5.4c-1.1-0.8-1.4-1.1-2.7-3
	c-6-7.4-13.8-12.3-22-16.9c-8.8-4.8-17.8-8.1-28-8c-20.9,0.4-41.9-0.7-62.7,2.8c-8.1,1.4-16.5,1.4-24.7,2.9
	c-4.7,0.8-9.4,2.1-14.2,2.3c-7.2,0.2-14.3,1.2-21.3,2.1c-17.9,2.4-35.6,3.1-53.4-0.7c-19.6-4.2-35.5-14.2-48.8-28.9
	c-1.1-1.3-2.4-2.3-4-3l-7.2-3.1c-0.5,0.7,16.2,27.7,20.1,27.8c0.4-0.2,7.2,4.7,10.3,7c9.8,6.9,21.3,9,32.5,11.7
	c7,1.7,14.3,0.6,22,1.2c-1.6,0.9-2.7,1.3-3.8,1.7c-0.3,0.1-0.6,0.2-0.8,0.2c-13.6,2.1-26.9,1.6-40.2-2
	c-15.5-4.1-26.6-13.1-33.7-27.2c-1.7-3.3-6.6-13.4-8.4-13.2c-2.1,0.2,1.5,26.2,9.4,34.5c9.3,9.7,20.6,16.7,34.5,18.3
	c1.2,0.1,2.3,0.3,3.4,0.7c2.2,0.7,2.2,1.8,0.5,3.1c-0.8,0.6-1.5,1.3-2.4,1.7c-8.6,3.7-15.9,9.6-23.5,14.9
	c-5.9,4.1-11.3,8.8-16.8,13.3c-1.2,1-5.7,6.5-7.4,8.6c-0.2,0.3,0,0.6,0.4,0.5c2.7-0.8,8.8-4.5,10.2-5.2c5.1-2.5,9.3-4.7,13.6-7.4
	c13.9-8.8,28.8-15.4,43.8-22c14.9-6.5,30.4-10.6,45.8-15.4c10.5-3.2,21.6-4.7,32.7-5.8c15.5-1.6,30.5,0.5,45.4,4
	c10.2,2.4,19.9,6.5,29.9,9.6c6.8,2.1,13.3,4.7,19.1,9.5c18.8,15.6,26.4,37.2,33.5,59.2c-4.8-8.8-12.5-15.1-19.3-22
	c-3.6-3.6-15.2-13.4-16.6-14.5c-4-3.1-8.3-5.1-13-7c-10.3-4.1-21-6.6-31.9-7c-23.6-0.8-47.1-0.3-70.6,3.3c-11.8,1.8-23.5,4.3-35.3,6
	c-6.2,0.9-12.7,2.3-18.9,3.9c-10.8,2.8-21.3,6.6-32.1,9.2c-4.5,1.1-9.3,1.5-13.4,3.6c-14.7,7.7-30.3,13.4-45.1,20.8
	c-1.6,0.8-3.5,1.2-5.3,1.1c-10.6-0.7-20.1,3.8-29.8,7.1c-1.8,0.6-10.6,5.5-11.7,6.3c-6.7,4.7-11.2,11.2-14.8,18.5
	c-4.3,8.8-8.6,17.5-17,23.5c-11.2,7.9-20.5,18-29.7,28c-4.9,5.3-9.8,10.8-13.7,17.1c-7.3,11.8-15,23.3-19.7,36.6
	c-1.8,5.2-4.9,10.1-6.5,15.5c-3.6,12.2-10.1,23.6-9.9,36.9c0,0.5-0.3,1-0.4,1.4c-3,13.2-1.6,26,4.1,38.2c1,2.1,1.7,3.6,0.4,6
	c-5.2,9.8-10.1,19.8-14.8,30c-2.2,4.9-3.7,9.9-5.4,14.9c-1.4,4.1-0.6,8.3-2.7,12.4c-5.9,11.9-15,21.6-21.4,33.1
	c-1.4,2.4-24.3,26.4-27.6,29.8c-8.3,8.4-18.2,14.1-28.9,18.8c-1.3,0.6-5,2.5-5,3.4c5.7,3.8,11.3,7.8,18.2,9.5
	c9.9,2.5,19.6,2.8,29.4-1c3.2-1.3,23.3-16.4,23.3-16.4c5.6-4.4,11.6-8.3,16.1-14c2-2,3.2-4.3,4-2.6c1.9,4.1,3.5,8.4,4.9,12.7
	c0.4,1.1,0,2.5-0.6,3.8c-2.4,5.4-7.1,9.1-10.1,14.1c-3.5,5.8-6.3,12.1-9.5,18c-5,9-8.1,19.3-10.1,29.7c-0.5,2.5-0.3,6.6-4.7,8.2
	c0.2-16.6-0.9-32.6,1.3-48.6c-1,3.5-2.8,6.9-2.9,10.2c-0.2,7.5-1.7,14.8-1.5,22.3c0.4,14.5,0,29,0.2,43.5
	c0.2,14.4-0.7,28.8,2.7,43.2c1.5,6.2,2.7,12.8,3.9,19.1c1.3,6.7,3.8,13.4,4.7,20.2c0.6,4.5,2.6,8.4,3.8,12.6c1.5-2.9-0.3-5.4-0.5-8
	c-0.7-8.5-0.3-17-0.3-25.5c0-1.3,0-2.7,0.3-4c1.5-5.9,3.4-11.8,4.5-17.8c1.5-8,4.2-15.5,6.9-23.1c2.3-6.5,4.4-13.1,6.2-19.8
	c1.1-4.4,1.7-9.3,3.7-13c3.4-6.2,5.8-12.5,7.7-19.2c0.6-2.2,1.8-4.9,4.3-6.6c0.7,6-1.4,11.2-1.7,16.7c-0.3,5-0.4,10-0.7,14.9
	c-0.5,9.8-1.9,19.7-2.1,29.5c-0.5,20.6-1.2,41.4,1.5,62c0.8,6.3-0.1,12.9,1.7,18.8c2.1,7.2,1.9,14.8,4.7,21.7
	c2.1,5.1,2.4,10.6,4.2,15.8c2.1,5.9,4.3,12.1,5.1,18.1c1,7.7,4.7,14.2,6.8,21.3c2.6,8.8,6.6,17.1,10.2,25.6c0.8,1.9,1,4.7,4,4.6
	c2-3-1.3-4.6-1.3-7c0-7.9-2.1-15.5-3.4-23.2c-2-11.7-2.5-23.6-4.2-35.3c-1.6-11-0.9-22.5-1.3-33.7c-0.8-21.5-0.2-43-0.2-64.5
	c0-2.3,0-4.6,0-6.9c2.6,0.6,2.9,2.5,3.6,4.1c3.6,7.5,6.1,15.4,11.4,22c1.2,1.5,13.8,16.5,18.7,22.8c4.6,5.9,24.4,20.4,26,20.2
	c0.6-1.7,18.4,13.1,19.1,11.5c0-0.3-5-9.3-5-9.6c-7.7-6.1-31.9-24.2-38.1-31.7c-7.6-9.2-16.4-17.8-19-30.5c-1.2-5.7-2-11.4-3.1-17.1
	c-1.1-5.7-1.5-11.3-1.6-17c-0.2-10.6,2.2-20.1,8.9-28.7c1.9-2.4,2.2-6,5.3-8.3c0,5.2-0.1,10.1,0,15c0,1.9,4.4,25.9,8.2,34.5
	c1.8,4.1,11.1,18.9,11.3,18.7c0.2-0.4-1.1-4-1.3-5.1c-1-5.3-2.4-10.6-3.9-15.7c0-0.1-0.1-0.2-0.1-0.3c-0.9-3.1-1.9-6.2-2.8-9.2
	c-2-6.2-2.4-12.5-3.3-18.7c-0.9-5.7,0.4-14.8,2.8-20c5.1-11.1,25-26.1,24.3-25.5c-1.8,1.6-1.7,4.7-2.5,7c-2.3,6.6-4.8,13.2-5.7,20.4
	c-0.9,7.3-0.4,14.6-0.9,21.8c-0.7,8.8,0.7,17.6,1.6,26.2c1.1,9.9,2.3,20.1,4.9,29.7c2.1,7.7,2.7,15.4,2.4,23
	c-0.2,7.1,3.5,13,4.1,19.7c0.1,1,0.9,2.6,2.1,2.3c0.9-0.3,2-1,2.4-1.9c0-0.1,0.1-0.2,0.1-0.3c0.1-0.3,0.2-0.6,0.1-1
	c-0.9-11.6,5.7-20.4,11.5-29.4c2.2-3.4,5.4-6.3,8.6-8.8c5.1-3.8,25-11.5,23.8-11.1c-5.1,1.5-5.1,6.5-6.9,9.9
	c-3.6,6.8-6.3,14.2-8.7,21.6c-3.8,11.7-7.3,23.4-9.4,35.6c-0.8,4.5-2.8,5.1-6.9,2.9c-2.4-1.3-6.4-6.3-8.5-8.3c0,0-0.2,0.3,0,1.3
	c0,0.2,1.3,2.6,1.2,2.4c-0.2,0.1-0.4,0.2-0.7,0.3c-1.1,1.5-0.1,2.5,1,3.4c1,3,4.3,2.7,6.4,3.9c4.2,2.5,3.9,6,1.9,8.7
	c-4.5,6.4-8.6,13-11.7,20.1c-4.1,9.2-13.5,15.9-12.8,27.4c-7.7,12.6-6.9,26.8-7.8,40.7c-0.5,8.2,0.6,16.5,1.7,24.5
	c0.6,4.9-1.4,12.8-3.5,12.4c-0.4,0.2-0.8,0.5-1.1,1c-0.6,1.1-1,2.3-0.1,3.5c3.2,3.8,6.1,7.8,9.5,11.4c2.6,2.7,1.6,6.8,4.4,9.5
	c3.9,3.7,14.6,21.3,15.6,26.3c0.1-17.8-1.1-35.7,11.4-50.2c0.5,0.8,2.1,2.3,1.9,3.5c-1,5.6-1.9,11.3-3.3,16.7
	c-1.7,6.5-2.6,13.1-2.9,19.6c-0.7,12.7-1.3,25.7,1.8,38.1c1.4,5.4,2.5,10.9,4.1,16.2c1.8,6.1,2.3,12.5,4.5,18.6
	c1.7,4.7,1.5,10.2,3.4,14.7c3.4,7.9,6,16,8.3,24.1c2.1,7.4,6.1,14.1,7.4,21.9c1.4-1.9,1.1-3.8,1-5.7c-0.3-7.6-1-15.1-1.1-22.7
	c-0.2-11.5-0.1-23,0-34.5c0-17.3-0.6-34.6,1.3-51.8c0.5-4.2,1.2-8.8,4.6-13.1c0.1,1.6,0.3,2.4,0.2,3.2c-0.8,8,0.6,16,1.7,23.7
	c1.1,7.9,3.3,15.8,4.6,23.8c1,6,1.7,12.1,4.6,17.8c4.7,9.3,26.3,45.4,32.7,51.6c4.1,4,8.9,7.2,13.2,10.9c3.2,2.8,8.2,3.7,12.4,5.3
	c0.9,0.3,15.9,7.8,17.5,9c0.6,0.4,1.4,0.7,2.9,1.7c0.3-0.4-8.5-17.9-10.1-22.7c-2.7-8.2-6.2-16.2-9.1-24.4
	c-3.7-10.5-6.8-21.2-8.9-32c-1.9-9.9-1.1-20.2-1.6-30.4c-0.1-3.1,1.1-5.9,0.9-9.2c-0.3-5.3-0.4-10.8,0-16.3c0.5-6.7,1-13.3,2.2-19.9
	c0.5-2.6,0.2-5.1,1.1-7.8c1.7-5.3-0.2-8.2-4.5-11.4c-6.9-5-15.1-9.1-15.9-19.5c-0.3-3.9-3.7-7-4.9-11c-1.6-5.4-3.4-10.8-5.5-16
	c-2.8-6.8-4.5-13.8-6-20.9c-1.2-5.9-2.2-11.8-3.5-17.6c-2.7-11.5-5.1-22.9-4.4-34.8c0.2-2.7,1.7-16.8,1.7-21.5
	c-0.1-6.9,2.5-13.4,2.7-20.2c0.1-4.7,2.7-8.7,2.4-13.4c-0.4-5.5,2-10.5,4.2-15.3c3.5-7.3,10.6-11.5,15.7-17.5
	c1.1-1.3,2.4-2.3,2.1-4.2c-1-0.7-1.9-0.7-2.9,0c-4.7,3.8-8.2,8.9-13.6,12.1c-3.1,1.8-6.7,4.1-8.6,7c-4.1,6.3-9.9,11.1-13,18.5
	c-2.7,6.6-5.9,13.2-8.8,19.8c-1.6,3.5-2.5,7.4-5,10.6c-2.8-4.1-1.8-8.3-2-12.2c-0.2-6.1-0.1-12.4,1.3-18.3c1.7-7,3.8-13.9,6.1-20.8
	c3.3-9.5,6.9-18.8,11.7-27.6c2-3.8,5.3-7.7,9.8-9.2c8.7-3,16.4-7.9,24.3-12.4c3.6-2.1,23.1-14.4,28.8-18.9
	c8.2-6.4,13.7-14,18.3-23.2c3.7-7.3,4.2-15,6.4-22.5c2.2-7.4,2.5-15.3,3.9-23c0.9-5,2-9.9,3.3-14.7c2.1-7.8,3.4-15.4,7-23.1
	c-1.3-2-2.9,3.1-4.2,4.4c-4.8,4.5-6.1,11.6-11.4,15.7c-0.9,0.7-1.1,2.3-1.5,3.6c-2.2,7.1-5.2,14.2-8.9,20.3
	c-6.4,10.7-12,22-19.9,31.9c-2.5,3.1-3.6,6.9-6.5,10.1c-5.1,5.7-8.1,13.1-12.9,19.3c-3.5,4.6-6.7,9.5-10.1,14.2
	c-3.8-4.3,2.5-21.4,3.4-23.7c2.4-5.8,6-11.1,9.9-16.1c2.9-3.7,5.3-7.8,8.3-11.2c2.9-3.3,15.7-27.2,20.3-35.5
	c0.5-0.9,14.3-25.1,12.9-26.7c-2.8,7.3-32.8,50-35.2,53.1c-3.7,4.8-6,10.7-9.5,15.6c-3.9,5.4-7.4,10.7-8.9,17.5
	c-1.9,8.3-6.4,15.9-7,24.6c-0.2,2.3-1.3,5-3.3,5.4s-4.4-1.1-5.8-3c-0.4-0.5-0.4-1.3-0.7-1.8c-3.4-4.8-3.7-10.1-3.1-15.8
	c0.7-6.2-0.8-12.4,1.7-18.8c1.7-4.5,11.3-18.7,13.5-21c10.6-10.6,22.6-19.7,32.7-30.7c2.9-3.2,4.6-7.5,8.9-9.5
	c0.5-0.3,5.9-2.7,2.3-6.2c-1.4-0.1-2.5,0.3-3.8,0.9c-5.9,2.8-9.3,8.4-14.6,12.1c-9.1,6.3-17.3,14-26.1,20.7c-3.1,2.4-6,5.1-9,7.6
	c-1,0.8-2.2,0.7-3.2-0.2c-0.6-0.6-0.4-1.5,0.4-2.1c4.5-2.8,5.3-8.1,7.6-12.3c2.9-5.1,4.6-11,7.1-16.4c2.3-4.9,4-10.1,5.9-15.2
	c0.9-2.4,3.9-13.6,3.6-17.1c-0.3-0.4-0.7-0.4-1,0c-2.6,5.6-4.7,11.5-7.8,16.9c-7.5,13.2-15.6,26-23.3,39.1
	c-3.3,5.5-6.9,10.8-10.1,16.3c-5.8,9.9-14.8,17.6-21.4,27.2c-4.3,6.2-10.3,11.2-15.1,17.3c-8,10.2-14.5,21.3-22.3,31.5
	c-0.6,0.8-0.6,1.9-1.9,1.7s-1.2-1.4-1.2-2.4c-0.1-9.2-0.2-18.3,2.2-27.4c1.4-5.1,4.6-9.3,6-14.2c0.5-1.1,1.2-1.9,1.8-3.1
	c0.7-1.3,10.4-19.6,15.4-27.2c7.8-12,17.7-22.2,27-32.8c7.6-8.7,16.4-16.3,24.4-24.6c10.9-11.4,22.3-22.4,29.2-37.1
	c3.5-7.6,8.5-14.6,10.6-22.6c1.6-6.1,4.4-11,8.6-15.8c-2.6,8.2,1.9,15.6,1.8,23.6c-0.1,5.2,1.5,11.1,3.4,16.4
	c1.5,4.3,0,8.6,1.3,12.8c1.4,4.6,3.4,9,3.3,14c0,1-0.1,2.1,1.2,2.4c1.7,0.3,1.5-1.1,2-2.1c1.6-2.8,1.8-5.9,2.4-8.9
	c1.2-6,4.4-11.4,5.4-17.5c0.7-4,2.5-6.8,6.1-8.7c1.1-1.3,1-2.5,0-3.8c-1-3.5,8.5-20.9,12.7-25.6c1.7-1.9,41.8-62.1,39.3-62.5
	c-7.2,0-55.2,80.7-57.1,86.3c-1,2.7-6.6,26.6-9.6,28c-1.4-1.3,1-16,2.2-21.9c1.4-6.7,5.4-23.8,5.4-25c0.1-4.3,2.1-8.2,2.8-12.2
	c1.6-9.4,5.2-17.8,9.3-26.4c2.9-6.2,7.9-10.9,10-17.9c0.9-3.2,18.7-22.2,20.8-27.6c-0.8,0-19.6,17.4-19.9,17.8
	c-5.2,7.4-11.3,14.1-17.8,20.4c-0.8,0.7-1.2,2-1.4,3.1c-0.8,4.8-4.9,7.9-6.4,12.4c-0.3,1.1-1.6,2.5-3.1,1.8
	c-1.8-0.8-1.1-2.5-0.6-3.8c2.1-6.1,4.4-12.1,6.3-18.2c1.5-4.8,3.9-9.4,6-13.7c1.9-4.1,5.4-8.1,8.3-12.1c3.1-2.9,7.6-3.6,10.5-6.5
	c3.2-3.2,6.7-5.6,10.5-7.6c8.5-4.5,17.1-8.7,25.7-13c6.6-3.3,13.8-5.4,20.5-8.4c7.5-3.4,16.2-3.7,22.9-8.8c0.7-0.5,1.8-0.5,2.8-0.7
	c8.4-1.7,16.3-5.1,24.8-6.6c8-1.5,16.3-3.5,24.2-4c12.5-0.8,25.3-2.1,38,1.3c6.9,1.8,13.5,3.2,19.7,7.3c3.9,2.5,13.4,9.3,14.4,10
	c2.8,2.8,12.5,12.4,14.1,14.3c2,2.4,4.5,4.1,6.1,7c3.2,5.9,7.1,11.5,10.8,17.3c0.4-5.7,0-11.1-0.4-16.5c-0.8-9.5-4.2-18.1-6.4-27
	c-1.9-7.6-6-14.7-9.2-22.1c-0.3-0.7-0.6-1.6-1.1-2.1c-2.1-2.2-5.9-8.1-7.4-9.7c-11-12.7-25-21.1-39.9-28.3
	c-3.8-1.8-8.1-1.6-11.8-2.9c-5.4-2-11.1-2.3-16.5-3.9c-4.7-1.4-9.9-0.1-14.2-1.6c-8.6-3-17.4-0.7-26.2-2.9
	c-9.1-2.3-18.6,1.5-27.9,2.9c-13.2,2.1-25.2,7.1-37.6,11.3c-4,1.4-6,5.4-9.9,6.1c-7.8,1.6-13.4,6.8-19.3,11.4
	c-3.9,3-6.5,7.8-10.1,10.7c-6.6,5.5-9.4,12.9-11.7,20c-2.3,6.9-4.5,14.1-6.1,21.4c-1.6,7.4-0.5,14.7-2.1,21.9c1-0.4,1.9-0.8,2.2-1.4
	c4.4-10.8,13.3-17.9,21.1-25.9c2.9-2.9,7-4.2,9.5-7.7c0.4-0.5,2.4-1.8,3.5-0.5c1,1.2,0.1,2.9-1.5,4.1c-1.6,1.1-3,2.5-4.2,4.1
	c-4.3,5.4-10.6,9.5-14.4,15.2c-5.3,7.9-9.7,16.3-13.4,25.1c-1.1,2.6-2.4,5.2-5.6,5.7c-1.5-3.6-5.5-30.6-4.5-35.7
	c1.5-7.5,1.9-15.5,6.8-22c3.4-4.6,3.2-10.9,7-15.4c3.7-4.4,5.8-9.8,8.6-14.7c3.1-5.6,6.1-11.5,9.5-16.8c6.4-9.9,13.9-19.1,21.6-28
	c10.4-12,22.4-22.7,36.6-29.9c12.8-6.4,25.1-14.2,39.7-16.7c9.1-1.6,18.1-3.4,27.3-2.5c5.2,0.5,10,2,14.5-1.6
	c0.8-0.7-10,10.1-13.3,13.5c0.9,0.6,11.5-3.4,16.4-4.5c8.2-1.8,16.6-3.3,24.7-2.3c8.6,1.1,17.2,0.2,25.8,2.4
	c7.2,1.9,14.4,3.6,19.9,8.2c9.6,8,17.4,17.6,22.2,29.4c0.6,1.6,0.7,4.5,3.7,4.6c3.5,0.1,8.3-10,8.9-13.5
	c0.4-2.5,12.3-14.6,16.6-18.8c8.9-8.9,20.3-10.1,31.3-11c9.8-0.8,19.8-2.6,30-0.7c7.2,1.3,25.9,8.7,29.3,8.4
	c0.7-1.2-0.5-1.6-0.9-2.3c-4.4-4.6-10.3-7-15.4-10.7c-1-0.7,8.3-1.1,11.8-1.2c6.3-0.2,12.5,0.3,18.8,0.8c4,0.3,38.9,12.1,50.1,17.8
	c8.3,4.3,15.7,9.3,22.6,15.5c4.9,4.4,10.8,8,14.5,13.1c5.2,7.2,10.8,14.2,16,21.3c6.1,8.3,10.8,17.2,16.5,25.6
	c1.8,2.6,13.3,19.6,14.9,26.3c1-0.4,1.3-2.5,1.2-2.5c-0.8-6.1-4.7-11-6.7-16.6c-2.2-6.3-5-12.4-7.8-18.5c-0.8-1.7-2.1-5.4-1.1-9
	c5.7,8.4,10.9,16.4,16.4,24.2c4.5,6.4,9.8,12.3,14.1,18.9c4.5,6.9,10.7,11.9,17.1,16.7c6.7,5,13.7,9.6,20.9,14
	c2.7,1.7,6.2,2.1,8.6,4.6c0.5,0.5,0.7,0.1,2.9,1c1.9,0.9,1.2,0.6,4.9,2c-1.6-3,0.3-3.1-2.2-4.3c-3.6-1.6-14.8-10-17-12.3
	c-3.5-3.7-8.5-5.8-11.9-9.3c-5.7-5.9-12.7-10.6-17.4-17.4c-1.7-2.5-3.5-4.9-5.4-7.2c-5.5-6.4-11.3-12.1-14.2-19.9
	c-2-5.3-6.6-8.9-9.1-13.8c-0.5-1.1-2.1-2.2-0.7-3.5c1-1,2.3-0.7,3.6,0.2c3.5,2.5,23.8,10.2,27.8,12.2c1.6,0.8,27.9,15,29.4,16
	c7.8,5.1,13.2,12.8,20.2,18.7c7.1,5.9,13.7,12.5,20,19.1c7.9,8.3,15.2,17.5,21,27.7c-0.2-4.3-6.9-18.5-8.3-21.9
	c-0.9-2.2,1.5-2.9,3.5-1.8c4.5,2.4,9.3,4.5,13.4,7.5c9.9,7.3,20.5,14.1,28.7,23.4c5.4,6.1,11.3,11.8,16.7,17.9
	c9.8,11.1,16.2,24,23.6,36.5c5.3,8.9,9.4,18.3,12.5,28.1c1.9,6,3.1,12.4,4.5,18.7c0.3,1.1-0.2,1.4-1.2,1.1
	c-5.5-6.6-21.5-35.7-26.4-39.4c-3.1-2.4-25.9-25.7-36.4-30.7c-0.7-0.4-2.3-6.8,0.4-7.5c-0.6-1.6-1.7-1.4-2.6-1.3
	c-7.7,0.8-15.3-0.6-22.8-1.5s-15-2.5-22.4-3.8c-8.2-1.4-16-3.8-24-5.9c-4.1-1.1-7.8-3.6-11.7-5.5c-4.9-2.4-9.7-5.2-14.7-7.6
	c-5.2-2.5-9.8-6.3-14.2-10c-1.9-1.6-10-6.4-10.3-6.8c-4.8-4.3-9.6-8.7-14.4-13c-1.7-1.5-3-3.2-2.8-5.7c-0.2-0.1-0.5-0.2-0.8-0.2
	c-0.9,2.4-0.6,4.7-0.1,7.1c1.4,1.5,1,3.5,1,5.2c-0.1,8.5,0.3,17-1.6,25.5c-0.9,4-0.1,8.5-3.1,12.1c-1.4-2.4-16.7-30-19.4-32.3
	c-7.6-6.7-13.2-15.1-19.9-22.6c8,4.2,15.3,9.3,21.8,15.6c7.1,6.9,13.5,14.2,16.6,24c1.5-9.2-2-17.8-3-26.7
	c-1.3-11-6.5-21.2-10.8-31.5c-1.4-3.4-3-7.1-6.1-9.9c-7-6.3-13.8-12.4-22.6-16.5c-11.5-5.5-21.8-12.4-34.6-16
	c-12.2-3.4-24.4-6.3-36.7-8.5c-11.7-2.1-23.6,1.3-35.4,2.2c-8.8,0.6-18,1.6-26.7,4.3c-5.7,1.7-11.7,2.5-17.1,4.8
	c-9.8,4.2-19,9.4-27.5,15.9c-5.4,4.1-18.5,18.9-19.9,21.1c-2.6,4.1-4,8.8-6.1,13.1c-4.7,9.5-8.7,19-9.4,29.8c-0.2,3.2-0.3,6.5-1,9.7
	c-0.9,4.1-5.1,16.7-4.8,16.9c0.8,0.4,15.1-18.7,19.1-24c4.4-5.8,9.9-10.9,15.6-15.7c5.5-4.7,11.5-9.1,17.8-12.3
	c1.5-0.8,13.9-3.7,18.1-4.9c5.1-1.4,10.8-2.4,15.3-1.8c8.7,1.3,17.9-1.3,26.3,2.5c5.3,2.5,11.2,1,16.8,2.5c7.4,1.9,15,3.7,22.5,5.5
	c7,1.6,13.3,5,20.2,6.9c5.3,1.5,10.9,3.8,16.2,5.7c7.6,2.7,14.3,7,21.5,10.5c2.5,1,24.6,12.2,32.2,19.1c8.5,7.7,16.7,14.5,19.1,26.4
	c0.7,3.3,7.9,22.7,9.5,27.7c-2.4-1.6-3.6-3.3-5-4.9c-2.8-3.2-24.5-29.2-24.4-33.1c-3.8-1.1-4.9,0.3-3.9,3.9c3,5.3,6.4,10.4,9,15.8
	c3.5,7.3,8.7,13.6,11.3,21.5c0.8,2.4,4.1,20.5,5.2,24.6c0.9,3.2,2.2,6.4,2.6,9.9c0.6,6,2.3,11.9,2.5,17.8c0.2,5,2.6,9.5,2.3,14.4
	c-0.1,1-0.2,2.1-1.6,2c-1.1-0.1-1.4-0.8-1.4-1.7c-0.1-4.4-2.6-8.4-1.9-13c0.5-3.4-1.1-2.1-2.4-1.4c0.1,0.1,0.3,0.1,0.4,0.2
	c-1,12.3,5.4,22.6,9,33.8c-0.3-2.4,0.1-4.6,0.7-6.8c0.1-0.4,0.2-0.8,0.3-1.2c0.4-1.6,0.9-3.3,1.2-4.9c0.5-3,1.7-6,2.5-9
	c0.3-1.4,0.5-2.8,0.7-4.2c0-0.3,0-0.6,0-0.9c-0.4-4.2,2.8-22.8,4.8-28c1.6-4.4,4.5-13.6,4.6-11.7c0,1.2,13.2,32.5,22,45.7
	c3.7,5.6,29.3,32.9,35.5,39.2c7.5,7.6,15.6,14.7,22.5,22.8c4.7,5.5,10.2,10.7,13.6,17.1c2.3,4.3,14,21.1,15.3,26.9
	c0.9,4.1,6,14.1,7.2,15.9c4.9,8.6,4,18,4.2,27.3c0,1.7-1,7.5-2.1,6c-4.3-5.8-8.1-12-12.3-17.9c-3.2-4.5-6.6-8.8-9.9-13.2
	c-5.3-6.9-10.9-13.5-16.9-19.9c-0.4-0.1-3.1-5-3.5-5.4c-9.7-8.7-14.9-21-23.7-30.4c-3-3.2-4-7.9-6.4-11.8c-8.2-13-16.6-26-22.5-40.3
	c-0.1-0.2-0.2-0.4-0.3-0.6c-0.2-0.3-0.5-0.6-0.7-0.9c-0.8-0.4-9.4-17.8-10.1-17.7c-0.5-0.4,6.1,18.4,6,17.9c0,0,1.6,3.9,2.2,5.8
	c3.9,7.6,5.8,16,8.8,23.9c2.9,7.9,9.4,26.3,8,24.7c-4.1-4.7-9.6-7.9-14.5-11.6c-2.2-1.7-29.6-22.1-31.1-24c-0.1-0.1-0.3-0.3-0.4-0.4
	c-0.3,0.1-0.5,0.1-0.8,0.2c-0.4,0.3-0.8,0.6-1.1,0.9c0.1,0.4,0.2,0.9,0.3,1.4c3.8,7.3,9.9,12.3,16.3,17.2c4.5,3.5,8.3,8,12.6,11.9
	c5.8,5.3,11.8,10.4,17.7,15.7c3.3,2.9,5.1,7,6,10.8c2.8,11.5,1.7,23.4,1.3,35.1c-0.2,5.2-5.3,9.8-9.2,9.5c-0.9-0.1-2,0.7-2.1-1.5
	c-0.3-12.3-4.8-23.6-9.7-34.7l0,0c-0.3-0.2-0.8-0.4-1.3-0.4c-0.8,0.3-1.3,0.7-1.7,1.1c1,1.6-0.3,3.6,1,5.1
	c2.6,7.9,6.8,15.4,6.4,24.1c0,1,0.2,2-0.7,2.5c-1.5,0.8-2-0.5-2.6-1.5c-7.4-11.9-15.9-23-23.4-34.9c-4.5-7.1-8-14.8-13.4-21.5
	c-2.6-3.3-4.6-7-6.5-10.8c-0.4-0.7-0.7-1.3-1-2c-0.1-0.3-0.3-0.6-0.4-0.9c-1.3-2.8-2.7-5.5-4.2-8.2c-5-8.6-7.5-18.4-14.4-26.2
	c-4-4.6-7.1-10.7-10-16.5c0-0.1,0-0.1-0.1-0.2c-0.2-0.1-0.5-0.2-0.8-0.3c-0.5,0-0.9,0.2-1.3,0.5c-1.3,4.3,2.9,6.3,4.1,9.6
	c3.7,10.1,5.1,20.7,6.9,31.1c2.3,13.7,4.4,27.5,8.3,40.8c2.2,7.5,6.7,14.2,11.3,20.4c3,4,7.8,6.6,11.8,9.8
	c13.2,10.4,27.9,18.6,43.1,25.7c2.7,1.3,6.7,1.2,8.4,3.3c4.8,5.8,11.2,10.5,13.8,18.3c0.9,2.8,1.5,5.9,3.1,8.6
	c5,8.8,7.3,18.7,9.2,28.4c1.8,9.1,3.2,18.4,2.2,27.9c-0.1,1.3,0.4,3-1.3,3.4c-1.7,0.5-2.5-1.3-3.5-2.3c-0.6-0.7-0.8-1.8-1.1-2.7
	c-2.5-8.3-5.3-16.5-10-24c-4.7-7.4-8.6-15.3-16-20.5c-1.7-2.8-5.3-3.4-7.1-6c-1.6-1-2.6-0.2-3.4,1.2c-0.6,2.8,1.1,4.6,2.5,6.7
	c3.4,4.9,6.8,9.8,7.2,16.1c0.1,2.3,0.1,4.7,0.8,6.9c4.6,13.8,1.8,28.4,4.4,42.5c2.4,12.9-1,26.1-2.3,39.1c-0.4,3.8-0.8,7.5-1.8,11.3
	c-1.5,5.7-3.6,11.1-5.3,16.6c-4,13.6-8.1,27-13.1,40.3c-3,8.2-9.3,12.9-15.2,17.8c-6.8,5.6-7.2,5.1-5.4,14.2c0.1,0.4,0.2,1,0.2,1.4
	c0.6,15.8,3.9,31.3,3.1,47.2c-0.2,4.6,1.3,9.4,0.9,13.8c-0.7,6.5-1,13.1-2.5,19.7c-3.8,15.7-7.7,31.4-13.5,46.5
	c-2.6,6.8-5.1,13.7-8.7,20.1c-1.5,2.7-2.1,5.9-4,8.5c-1.3,1.7-1.6,4.2,0,5.5c2,1.7,3.2-0.9,4.3-2.1c3.2-3.3,6.7-5.9,11.4-6.7
	c1.8-0.3,3.5-1.2,5-2.2c0.4-0.3,2.5-8.7,3.2-10c0-0.5,0.2-1,0.4-1.6c3.1-3,6.7-5.7,9.6-8.9c0.7-0.8,1.3-1.6,2-2.3
	c0.2-0.3,0.5-0.6,0.7-0.9c5.4-7.6,12.2-14.2,17-22.1c0.9-1.5,1.7-3,2.5-4.6c0.3-0.6,0.5-1.1,0.8-1.7c1.1-2.5,2.3-5,3.4-7.5
	c1.2-2.8,2.2-5.7,3.3-8.6c0.2-0.7,0.4-1.5,0.5-2.2c0.5-2.6,2.5-4.8,3.1-7.3c0-0.6,2-5.1,2.3-6.5c0.1-0.7,0.2-1.3,0.3-2
	c0.1-1.3,0.1-2.7,0.3-4c1.1-5.8,2.3-11.6,3.4-17.4c0.8-4.4,1.4-9.1,1.8-13.7c0.5-5.6,0-11.5,2.2-16.9c0.2-1.3,0.4-2.7,0.6-4
	c-0.4-8.3,3.2-16.2,2.1-24.5c-0.2-1.2-0.9-3.4,1.3-3.6c2.1-0.2,2.7,1.9,2.8,3.5c0.3,3.6,1.8,6.8,3.3,10c3,6.5,0.6,13-0.4,19.3
	c-0.3,2.2-0.8,4.4-1,6.7c-0.9,9.3-3.2,18.4-4.3,27.5c-0.7,5.8-4.6,10.8-3.1,17.4c0.6,2.6-2.6,7.8-4.5,11.6
	c-2.3,4.6-4.7,9.8-5.3,14.1c-1.4,10.2-7.7,17.1-12.7,25c-0.3,0.5-0.6,1.1-0.9,1.6c0.4,0.8-3.3,9.2-2.8,9.9c1.5,1.7,7.3-6.6,8.4-8.2
	c5-7.5,10.9-14.5,13.3-23.3c2.6-9.6,7.6-18.4,9.8-28.3c3.4-15.8,7.1-31.5,6.4-47.1c2.3,13.1,3.7,27.1,3.4,41.2
	c-0.4,17.5,0,35,0,52.4c0,6.6,0.8,13.3-1,19.8c-0.5,1.9-0.7,3.9,1.5,4.7c2.5,0.9,3.6-1.1,4.3-3c1.1-3.1,2.5-6.2,3.5-9.3
	c5.6-16.9,10.6-34,15.7-51c6.3-21.1,8.6-42.5,7.9-64.5c-0.3-9-2.9-17.7-3-26.7c0-3.4,0.3-6.9-0.8-10.2c5.1,11.2,10.8,22.3,7.8,35.4
	c-0.3,1.2-0.5,2.4,0.7,3.2c1.4,0.9,2.6,0.1,3.5-0.9c5.8-6.6,12-13,15-21.6c0-0.3,3.9-7,6.5-9.6c5.2-5.2,9.7-11.1,12.8-18
	c1.4-3.2,2.6-6.5,4.3-9.5c0.2-0.3,0.1-0.5,0-0.5c-0.7-0.1,0.5-0.4,0.2,0.2c-4.3,9.9-3,21.1-7,31.1c-0.3,2.4-1.3,7-1.6,7.7
	c-1.8,2.8-3,5.9-3.5,9.2c-1.3,8.7-4.9,16.8-7.1,25.2c-1.6,6-2.3,19.1-1.8,19.2c1.8,0.1,15.6-39,18.8-46.9c3-7.2,2.6-15.4,4.5-22.8
	c2.4-9.7,5-19.3,6.9-29.1c2.6-13.3,5.3-26.6,6.1-40.2c-0.3,3,2.4,23.8,3.5,23.5c1.8-0.7,4.5-12.9,4.8-14.6
	c1.1-6.9,1.4-13.9,0.9-20.9c-1-13.1-4.2-25.9-5.9-38.9c-0.4-3.2-0.7-6.5-1.1-9.7c-1.1-8.5-4.3-16.4-6.3-24.6c-0.6-2.3-0.2-6.3-3.1-6
	c-3.1,0.4-1.9,4.3-2.1,6.8c-0.8,8.6,1.3,17.1,1.1,25.8c-0.5,19.3,0.6,38.6-1.2,57.9c-0.4,4.6-0.4,9.5-2.3,13.7
	c-6,13.6-7.9,28.6-15.4,41.6c-1.5,2.6-1.5,6.1-4.5,7.9c1.5-8.4,1.9-16.9,2.7-25.2c1.2-13,1.1-26.3-2-39.2c-1.3-5.5-1.4-11.3-4-16.5
	c-4.5-9.3-9.9-18.1-14.5-27.3c-2.5-5.1-5.6-9.8-8.9-14.4c-2.9-4.1-5-8.1-2.5-13c-0.1-0.1-0.1-0.1-0.2-0.3c-5.5,0.5-4.3-4.7-5.1-7.7
	c-1.9-7.3-4.2-14.5-6-21.7c-1.9-7.5-5.6-14.3-7.5-21.9c-0.8-3-1.7-6-2.8-9c-1-2.4-2.2-4.7-3.4-7c-1.3-2.1-2.9-4.1-4.7-5.9
	c-1.1-1.1-2.3-2.2-0.8-3.8c1.5-1.5,2.4-0.2,3.8,0.6c10.5,6.5,19.9,14.4,28.1,23.5c3.8,4.2,7.7,7.8,9.4,14.4
	c1.9,7.3,2.7,14.6,4.8,22.3c1.5-1.9,2.8-3.5,3.3-6c2.3-10.9,4.9-21.7,5-32.9c0.1-6.5,3.6-12.6,3.8-19.2c0.3-8,3.9-52,3.9-58.3
	c0-10.9-1.6-21.2-6.7-31.1c-1.3-2.5-2.3-5-4.2-7.1c-1.4-1.5,0.1-2.5,1.1-3.2c1.8-1.4,1,0.8,1.5,1.3c3.9,3.9,7.5,8.3,11.7,11.7
	c8.4,6.9,11.1,17,15.3,26.2c1.2,2.6,1.3,6.6-0.7,9.6c-0.6,0.9-0.7,1.8-0.8,2.8c-0.2,10.2-4,19.6-5.5,29.5
	c-0.7,4.5-5.9,30.4-5.6,30.3c4.2-10.5,14.8-37.5,18.4-48.2c2.5-7.3,3.5-15,2.7-22.8c-0.3-3.3-3.4-6.3-1.2-10.2c0.3-0.2,1,0,1.3,0.6
	c4.1,7.5,8.5,14.8,11.4,22.8c1.3,3.4,0.6,6.9,0.6,10.4c0.1,9.4,0.8,19-1.3,28.2c-1.8,7.9-4.9,15.4-8.7,22.7
	c-5.8,11.2-15.4,18.7-23.3,27.8c-0.5,0.8-0.9,1.5-1.8,1.9c-5.2,4.6-10.4,9.5-16,13.3c-6.6,4.5-11.7,10.6-18.6,14.5
	c-0.3,0.2-0.3,0.9-0.4,1.3c0,0,0,0,0.1,0l-0.1,0.1c0,0,0,0,0-0.1c-0.3,0.1-0.6,0.1-0.8,0.1c0.2,0.1,0.3,0.3,0.5,0.4
	c4.9,0.6,9.3-1.7,13.1-4c9.8-6.1,19-13.3,28.6-19.8c1.4-0.9,2.5-2.2,3.2-3.8c0.9-1.9,2.5-3,3.8-4.4c4.9-5.2,10.9-9.6,14.3-15.9
	c5.2-9.6,13.2-17.5,16.5-28.4c0.3,4,0.6,7.9,0.5,11.9c-0.5,27.7,0.7,55.5-2.1,83.1c-0.2,2-0.1,4-0.5,6c-2.3,12-5.9,53.8-4,57.2
	c0.1,0.1-0.9,12.8,0.2,11.8c3.4-4.8,8-22.1,10-27.6c4.2-11.6,8.7-23,12.5-34.7c2-6.3,2.5-12.7,3.7-19c2.2-10.9,6.1-21.4,7.2-32.6
	c0.4-3.9,1.1-7.8,1.6-11.7c1-7.7,3.3-15.3,3.1-23.1c-0.6-17.9,0.4-35.8-1.4-53.8c-1.7-16.6-3.2-33.2-4.6-48.2
	c3.6,6.2,4.3,15,7.9,22.9c1.6,3.6,3.4,7.2,4.6,11c3.2,10.5,7,20.8,9.4,31.5c1.9,8.4,5.4,16.4,6.8,25c1.2,7.3,2.8,14.6,4.4,21.9
	c0.9,1.2,1.1,28,2.6,28.1c2.4-0.2,4.1-28.2,4.3-30c0.8-9.6,4.6-18.7,5.6-28.3c0.3-3,0.3-6,1-8.9c2.3-8.6,2.1-17.4,1.8-26.2
	c-0.4-13.5-0.6-27,0.1-40.4c0.5-10.5,0.5-20.9-2.2-31.1c-0.4-1.7-0.1-4.4-2.5-4.3c-3,0.2-2.3,3.2-2.4,5.2c-0.2,6.7,0.1,13.3-0.1,20
	c-0.1,4,0.6,7.9,0.8,11.4c-1-3.9-0.9-8.6-2.6-12.6c-7.2-16.9-13.1-34.5-25-49.1c-1.4-1.7-2.4-3.6-3.3-5.6c-1.1-2.2,0-10.2,1.5-11.9
	c1-1.1,2-1.1,3.1-0.4c1.3,0.8,2.4,1.7,3.5,2.7c6.9,6.5,14.2,12.5,21.4,18.5c2.7,2.3,6.6,2.8,9,5.3c7.4,7.9,17.5,7.4,26.6,7.7
	c11.3,0.4,20.8-5.8,29.4-13.1c0-0.8,0-1.2,0-2C1388.5,830.5,1388,830.1,1387.3,830z M183.9,832.9l-0.1-0.1l0,0
	C184.2,832.9,184,832.9,183.9,832.9z M184.1,833.1c0.7,0.5,1.5,0.1,2.2,0.5C185.6,833.4,184.8,833.6,184.1,833.1z M268,799
	c-2.4,2.6-10.1,9.9-11.2,11.1c-8.8,9.5-19.8,16-30.7,22.4c-5.3,3.1-12,3.7-18,5.3c-0.9,0.2-2.1,0.3-2.7-0.7c-0.7-1-0.2-2,0.5-2.7
	c1.7-1.6,7.3-7.5,8.5-7.7c0.3-0.2,0.7-0.4,1.1-0.6c0.3-0.2,0.8-0.6,1.1-0.8c3.9-4.1,7.8-8.1,11.8-12.2c5.5-3.9,16.8-22,17-22.1
	c0.3-0.3,0.6-0.6,0.9-0.9c2.9-1.7,5-4.3,6.5-7.1c0.2-0.5,0.5-1.1,0.7-1.6s0.4-0.9,0.5-1.4c1.8-5.3,6.6-8,9-12.6
	c1.1-2.2,2,0.1,2.2,1.2c1.7,8.5,3.3,17.1,4.9,25.6C270.4,796.2,269.3,797.6,268,799z M501.6,1356.6c-0.2-0.2-0.3-0.4-0.5-0.6
	C501.3,1356.2,501.4,1356.4,501.6,1356.6z M493.9,757C493.9,757,494,756.9,493.9,757L493.9,757L493.9,757c-4.2,3-5.8,8-8.7,12
	c-3.6,4.8-8.2,8.5-11.9,13.1c-3.9,4.8-9.6,7.5-14.1,11.4c-4.1,3.6-36.2,20-40.7,21.7c-4.2,1.6-23.9,11.7-29.5,15
	c-13,7.5-25.3,15.5-36.3,25.7c-8.1,7.5-15.8,15.1-21.3,24.7c-1.3,2.3-7.5,11.1-10.3,10.9c0.5-5.9,3.8-10.8,6.3-15.9
	c0.9-1.9,35.7-42.1,38.2-44.7c11.6-12.3,26.9-20.3,38.4-32.7c1.3-1.5,12.9-9.1,16.8-12.3c1.5-1.2,15-9.4,16.5-12.5
	c-2,1.9-11,5.5-12.8,6.1c-5.3,1.8-9.6,4.5-14.2,7.4c-0.9,0.6-42.3,37-47.4,40.4c-4.7,3.1-20.6,19.3-23.5,24.1
	c-1.2,1.1-16.8,19.9-18,24.3c-1.8-5.9-0.1-10.7,2.7-15.4c2.4-4,3.8-8.6,6.1-12.6c5.1-8.8,8.2-18.6,14-27.1c2.2-3.2,5-5.9,7.2-9.2
	c2.6-4.1,4.8-8.4,7.4-12.5c1.6-2.6,4.5-3.1,6.6-4.9c4-3.5,5.9-8.9,10.3-11.9c8-5.4,14.5-12.5,22.1-18.4s16.4-10.6,22.6-18.3
	c1.4-1.7,1.8-1.9,4.7-0.4c4.9,2.5,23.4,7.8,27.1,8c6,0.2,11.9-1.6,17.5-3.4c7.2-2.4,13.8-6.5,20.9-9.3c2.8-1.1,8.9-6.3,9.1-2.9
	C500.7,744.7,497.7,750.9,493.9,757z M534.1,597.2c0.1,3.4-0.9,6.3-2.4,9.3c-2.8,5.5-15.6,38.8-18.6,46.8
	c-3.1,8.2-9.8,13.2-16.9,17.5c-3,1.8-5.5,4.1-8.1,6.3c-5.5,4.9-12.6,7-18.3,11.8c-2.4,2-5.4,4.6-9.9,4.8c-3.3,0.2-6.7,4-10.4,5.7
	c-5.4,2.5-11.1,3.4-16.8,5c-6.3,1.7-12.8,2.9-19.2,4.2c-4.9,1-9.9,1.5-14.9,2.1c-4.3,0.6-9.1,0.4-13.1,1.7c-3.5,1.1-17.3-2-20.4,0.4
	c0.1,0.3,10.7,0.8,10.8,0.8c2,0.5,5,0.3,5.2,2.7c0.1,1.9-2.4,3.2-4.5,4c-9.7,4.1-17.7,11.1-26.6,16.5c-2.9,1.7-4.9,4.9-6.5,7.5
	c-2.3,3.8-33.5,45.4-33,43.8c2.7-7.4,6-14.7,7.9-22.3s5.9-14.1,8.7-21.3c2.8-7,7.2-13.3,11.3-19.7c5-7.6,10.9-14.5,16.3-21.8
	c4.5-6.1,18.2-18.8,19.5-20.6c3.1-4.3,22.6-17.2,28.6-20.4c2.7-1.4,11.7-1.8,10.8-0.8c-2.8,3.3-16.7,29.7-15.7,32.2
	c3.9-1,13.1-19.8,14.9-22.3c9.2-12.5,20-23.4,31-34.1c5.1-5,10.7-9.8,15.8-14.7c7-6.8,14.4-12.2,23.1-16.2
	c8.1-3.7,16.9-6.5,24.2-11.4c4.3-2.9,19.2-6.1,21.4-7.6c-3.5,5.2-5.8,10.5-8.8,15.5c-5,8.2-11,15.6-16.7,23.2
	c-0.9,1.2-13.7,15.5-16.5,18.1c-6.5,6.1-13.9,10.9-20.3,16.9c-1.1,1-5.6,6.6-7.6,7.7c-3.1,1.7-41.9,24-45.1,25.5
	c4.7-0.1,67.8-34.6,73.3-39.6c4.9-4.5,10.2-8.8,14.7-13.9c6.5-7.3,11.4-15.7,17.6-23.2c4.9-5.9,7.9-13.1,13.1-18.7
	C532.7,597.8,534.4,596.2,534.1,597.2z M552.1,518.2c-4.3,0.5-7.7,3.6-10.6,6.8c-1.5,1.7-3.6,1.6-5.4,2.5
	c-12.6,7.1-25.2,14.1-37.6,21.7c-10.5,6.4-20.5,13.5-31,19.9c-4.4,2.7-16.9,10.1-19.1,11.6c-3.3,2.3-24.3,9.4-27.9,11.4
	c-7,3.9-14.3,6.9-21.6,10c-8.9,3.7-16.9,8.8-25.4,13c-5.4,2.7-10.9,5-15.7,8.7c-5,3.9-10.6,6.9-15.5,11.1
	c-3.3,2.8-19,12.6-18.1,11.9c3.4-3.1,7.4-5.9,9.8-9.7c4.3-6.8,9.8-12.5,15.4-18c5-5,10.4-9.6,16-14c1.8-1.4,12.7-10.5,16.6-13.3
	c5-3.5,10.3-6.8,14.6-11.6c2.6-2.9,6.5-4.6,9.7-6.9c6.2-4.5,12.1-9.4,18.6-13.4c2.8-1.7,11.2-8.1,13.2-9.1c4.4-2.9,9.2-5.2,13.6-8.3
	c3.1-2.2,7.5-3.8,11.2-4.4c5.3-0.8,9.3-3.8,13.9-5.7c7.6-3.2,15.3-5.6,23.1-8.2c8.8-2.9,18.1-2.9,26.8-6.1c2.9-1.1,6.7-1.7,10.1-1.6
	c2.1,0.1,24.3-3,24.9-2.2C558.1,515.4,555.7,517.7,552.1,518.2z M1151.1,740.2c-2.8,3.2-6.6,2.3-10.1,2.7c-10.7,0.8-21.1-2-31.7-2.8
	c-5.6-0.4-40.5-8.2-42.9-16.8c-0.7-2.4,1.8-7.8,3.8-6.8c9,4.6,18.3,7.8,28.6,9.1c7.2,0.9,14.9,3.1,21.9,2.7c9.9-0.6,20-0.7,30-3
	c5.1-1.2,11.1-1.7,17.7-1.4C1163.2,730.8,1158.6,737,1151.1,740.2z"/>
<path class="st1" d="M1076.8,1349.3c3.1-1.4,5.2-3.8,7.5-6.1c4.7-4.7,9.3-9.2,15.2-12.6c2.6-1.5,3.5-5.6,6.5-7.3
	c0.7,0.9,2.1,1.3,1.9,2.8c-2.5,11.1-11.6,16.9-19.8,22.8c-4.7,3.4-9.2,8.9-16.2,8.2l0.1,0.1
	C1060.4,1364.4,1062.6,1354.8,1076.8,1349.3z"/>
<path class="st1" d="M1095,917.7c-2.7-6.3-8.1-10.9-11.1-17.1c-1.4-3-3.3-5.8-5-8.6c1.1-0.8,1-3,3-2.9c4.3-0.3,4.3,3.9,5.8,6.1
	c2.4,3.5,3.2,7.9,6.6,11c1.4,1.3,1.8,3.8,2.7,5.7C1095.2,913.4,1094.9,915.5,1095,917.7z"/>
<path class="st1" d="M1141.9,745.8"/>
<path class="st1" d="M1189.1,717.9c2,1,4,2,6.1,3c-2,0.2-3.8,1.8-6.1,0.6C1186.6,720.2,1186.9,719.1,1189.1,717.9z"/>
<path class="st1" d="M1216,1198.8c0.6-2.3-1.7-5.4,1.9-6.9c-1.4,3.1-2,6.1,2.1,8.1C1217.7,1201.6,1216.8,1200.4,1216,1198.8z"/>
<path class="st1" d="M461.3,796.8c1.2,0,2.3-0.1,3.3,0c0.9,0.1,1.2-1.9,2.3-0.7c0.3,0.4,0.5,1.3,0.2,1.7c-0.5,1-1.6,1.1-2.6,1
	C463.3,798.7,462.1,798.4,461.3,796.8z"/>
<path class="st1" d="M1101,612c-1.3-0.4-3.4,2.3-4-1C1098.4,608.4,1098.6,608.5,1101,612z"/>
<path class="st1" d="M363,626c1.9,2.3,1.6,3.9,1.4,5.4c0,0-1,0.2-1.2-0.1C361.8,629.8,363.3,628.3,363,626z"/>
<path class="st1" d="M1213,1010.8c0-1.3,0.6-1.8,1.8-1.9c1,1.5,0.6,2.9-0.7,3.6C1213.2,1013,1213.1,1011.6,1213,1010.8z"/>
<path class="st1" d="M316,921c1.3,2,0.8,3.2,0.6,4.9C314.6,924.5,315.2,923.1,316,921z"/>
<path class="st1" d="M1072.1,1351.9c0,1.7,0,3.4,0,5.1C1070.1,1355.3,1068.6,1353.6,1072.1,1351.9z"/>
<path class="st1" d="M1191.1,933.8c-1.2-1.8-2.8-3.5-1-5.8C1192.4,929.5,1190.9,931.8,1191.1,933.8z"/>
<path class="st1" d="M1229.3,640.9c1.3,1,2.1,2.1,0.8,3.3c-0.3,0.3-1.1,0.5-1.3,0.3C1227.4,643.1,1229.7,642.2,1229.3,640.9z"/>
<path class="st1" d="M1057,727.8c0-0.3,0.1-0.5,0.1-0.8c0.7-1.8,1.8-2.5,3.7-1.4C1060,727.5,1058.1,727,1057,727.8z"/>
<path class="st1" d="M704.1,425.9c1.3,0,1.8,0.8,2,1.9c-2-0.5-4.1-0.9-6.2-1.4C701.3,425.4,702.8,426.1,704.1,425.9z"/>
<path class="st1" d="M494.9,756.9c2,0.2,2.5,1.3,1.7,3.4C494.6,759.8,495.1,758.1,494.9,756.9C495,756.9,494.9,756.9,494.9,756.9z"
	/>
<path class="st1" d="M334.9,755.8c0.4-0.7,0.8-1.4,1.1-2c1.3,0.3,2.3,1,1.7,2.3C336.9,757.7,335.9,756,334.9,755.8z"/>
<path class="st1" d="M1074.9,1310.2c0.3-0.8,0.1-1.8,1.1-1.4c0.4,0.2,0.8,1,0.9,1.5c0.1,0.6-0.2,1.5-1.1,1.1
	C1075.4,1311.3,1075.1,1310.5,1074.9,1310.2z"/>
<path class="st1" d="M503,1357c-0.8-0.5-2.6,0.2-2.3-1.6c0.1-0.6,1.5-1.5,1.8-1.3C503.7,1354.6,502.8,1356,503,1357
	C502.9,1357,503,1357,503,1357z"/>
<path class="st1" d="M1114,999.9c-0.1,0.9,0.2,2-0.7,2.6c-0.2,0.1-1-0.3-1-0.6C1111.8,1000.4,1112.7,999.9,1114,999.9
	C1114.1,1000,1114,999.9,1114,999.9z"/>
<path class="st1" d="M1255,1103c1.1,0.1,1.9,0.5,1.7,1.8c-0.1,0.3-0.8,0.8-0.9,0.8C1254.7,1104.9,1255.2,1103.8,1255,1103
	C1255.1,1102.9,1255,1103,1255,1103z"/>
<path class="st1" d="M473.7,694c-0.2,0.2-0.5,0.6-0.9,0.7c-0.6,0.2-1.3,0.1-1.4-0.8c0-0.3,0.5-0.8,0.8-0.9
	C472.9,692.9,473.5,693,473.7,694z"/>
<path class="st1" d="M1199.1,1195.9c-1.4,0-2.2-0.6-1.8-2.1c0.1-0.3,0.9-0.7,1.1-0.5C1199.3,1194,1199,1195.1,1199.1,1195.9
	C1199,1196,1199.1,1195.9,1199.1,1195.9z"/>
<path class="st1" d="M488.9,521.1c0.2,0.2,0.7,0.5,0.7,0.9c0.1,0.9-0.7,1-1.3,0.9c-0.4-0.1-0.9-0.5-0.9-0.8
	C487.4,521.1,488.1,521.1,488.9,521.1z"/>
<path class="st1" d="M1216.5,525.6c-0.2-0.3-0.7-0.8-0.8-1.3c-0.1-0.2,0.6-0.6,0.9-0.9c0.4,0.5,1,0.8,1.1,1.4
	C1217.9,525.3,1217.4,525.7,1216.5,525.6z"/>
<path class="st1" d="M1117.1,1278c-1.3-0.1-2.2-0.6-1.8-2.1c0.1-0.3,1-0.6,1.1-0.5C1117.3,1276,1117,1277.1,1117.1,1278
	C1117,1278,1117.1,1278,1117.1,1278z"/>
<path class="st1" d="M1101,1308.3c-0.1,0.8-0.3,1.5-1.1,1.2c-0.3-0.1-0.6-0.7-0.6-1.1c0-0.7,0.3-1.3,1.1-1.1
	C1100.6,1307.4,1100.8,1308,1101,1308.3z"/>
<path class="st1" d="M308.1,586.7c-0.3-0.2-0.7-0.5-0.9-0.8c-0.3-0.6-0.1-1.3,0.6-1.6c0.2-0.1,0.8,0.3,1,0.6
	C309.1,585.6,308.9,586.2,308.1,586.7z"/>
<path class="st1" d="M374.8,874.1c0,0.8-0.1,1.5-1,1.5c-0.3,0-0.7-0.6-0.8-0.9c-0.1-0.6,0-1.3,0.9-1.3
	C374.3,873.4,374.6,873.9,374.8,874.1z"/>
<path class="st1" d="M516.8,883.2c1,0.2,1.2,0.8,1,1.5c-0.1,0.3-0.6,0.8-0.9,0.8c-0.8,0-0.9-0.8-0.8-1.4
	C516.2,883.8,516.6,883.5,516.8,883.2z"/>
<path class="st1" d="M452,908.4c-0.3,0.4-0.5,1-0.8,1.1c-0.8,0.2-1.1-0.5-1.1-1.1c0-0.7,0.3-1.3,1.1-1.1
	C451.6,907.4,451.8,908,452,908.4z"/>
<path class="st1" d="M1120.8,909.6c-0.2-0.3-0.6-0.6-0.6-0.9c-0.1-0.6-0.1-1.4,0.8-1.4c0.3,0,0.8,0.5,0.9,0.8
	C1122,908.8,1121.8,909.4,1120.8,909.6z"/>
<path class="st1" d="M321.9,650.5c1-0.3,1,0.3,1.1,0.7c0.1,0.9-0.2,1.6-1.2,1.6c-0.5,0-1.5,0.2-1.2-0.8
	C320.8,651.4,321.6,650.9,321.9,650.5z"/>
<path class="st1" d="M1065.9,1355.6c1-0.3,1,0.4,1,0.8c0.1,1-0.3,1.6-1.3,1.6c-0.4,0-0.7-0.4-1-0.6
	C1065.1,1356.7,1065.6,1356.1,1065.9,1355.6z"/>
<path class="st1" d="M532.1,649.7c0.2-0.7,0.2-1.5,1.1-1.3c0.3,0.1,0.7,0.6,0.7,1c0,0.6-0.1,1.4-1,1.2
	C532.5,650.5,532.3,650,532.1,649.7z"/>
<path class="st1" d="M1182.9,956.1c0,0.8-0.1,1.6-1,1.5c-0.3,0-0.7-0.6-0.8-0.9c-0.1-0.6,0-1.4,0.9-1.3
	C1182.4,955.4,1182.7,955.9,1182.9,956.1z"/>
<path class="st1" d="M1198.2,957.2c0.2,0.2,0.6,0.5,0.7,0.8c0.2,0.6,0,1.3-0.7,1.4c-0.3,0.1-0.8-0.4-0.9-0.7
	C1197,958.1,1197.2,957.5,1198.2,957.2z"/>
<path class="st1" d="M639.9,641.8c-0.8-0.1-1.5-0.1-1.4-1c0-0.3,0.6-0.7,0.9-0.8c0.6-0.1,1.3,0,1.2,0.9
	C640.6,641.3,640.1,641.6,639.9,641.8z"/>
<path class="st1" d="M425.2,958.9c0.5-0.8,1-1,1.6-0.7c0.3,0.2,0.7,0.8,0.6,1c-0.2,0.6-0.9,0.9-1.5,0.6
	C425.6,959.6,425.4,959.2,425.2,958.9z"/>
<path class="st1" d="M1118.9,958.1c0.2,0.2,0.7,0.5,0.7,0.8c0.1,0.9-0.7,1-1.3,0.9c-0.4-0.1-0.9-0.5-0.9-0.8
	C1117.3,958.2,1118.1,958.1,1118.9,958.1z"/>
<path class="st1" d="M1197,966c0.1-0.9-0.2-2,0.8-2.6c0.2-0.1,1,0.3,1,0.6C1199.2,965.5,1198.4,966,1197,966
	C1197,965.9,1197,966,1197,966z"/>
<path class="st1" d="M1325,970.7c-0.9-0.4-1-1-0.8-1.6c0.1-0.3,0.7-0.8,0.9-0.7c0.7,0.2,0.9,0.8,0.7,1.5
	C1325.7,970.2,1325.3,970.4,1325,970.7z"/>
<path class="st1" d="M1218.1,616c0-0.9-0.3-2,0.6-2.7c0.2-0.1,1,0.3,1.1,0.5C1220.2,615.3,1219.4,615.9,1218.1,616
	C1218,615.9,1218.1,616,1218.1,616z"/>
<path class="st1" d="M691.6,421.8c-0.7-0.2-1.1-0.5-0.7-1c0.2-0.3,0.8-0.6,1.2-0.6c0.2,0,0.4,0.6,0.6,1
	C692.2,421.5,691.8,421.7,691.6,421.8z"/>
<path class="st1" d="M253.1,775.4c-0.6,0.3-1,0.7-1.4,0.7c-0.2,0-0.6-0.6-0.6-0.9c0-0.4,0.4-0.7,0.7-1
	C252.1,774.5,252.4,774.8,253.1,775.4z"/>
<path class="st1" d="M489.1,1329.4c0.7,0.2,0.9,0.8,0.8,1.5c-0.1,0.5-0.4,0.9-0.9,0.4c-0.3-0.3-0.7-0.7-0.8-1.1
	C488.1,1329.6,488.6,1329.4,489.1,1329.4z"/>
<path class="st1" d="M1284.7,943.5c-0.8-1.6-0.8-2.8-0.1-4C1285.6,940.6,1285.4,941.7,1284.7,943.5z"/>
<path class="st1" d="M1082.9,735c0.8,0.4,1.5,0.8,2.3,1.2c-0.3,0.7-0.5,1.8-1.6,1.4C1082.6,737.1,1083.1,735.9,1082.9,735z"/>
<path class="st1" d="M295.4,1037.4c0.9,1.2,0.8,2.4,0.2,3.7C294.2,1039.8,294.8,1038.7,295.4,1037.4z"/>
<path class="st1" d="M535.1,597.1c-0.4-0.4-0.7-0.8-1.1-1.1c0.5-1.2,1.6-1.4,2.3-0.7C537.4,596.6,535.9,596.7,535.1,597.1z"/>
<path class="st1" d="M564.9,566.7c0.9-0.3,1,0.3,1,0.7s-0.2,1-0.5,1.2c-0.5,0.2-0.9-0.2-0.9-0.8C564.4,567.4,564.7,567,564.9,566.7z
	"/>
<path class="st1" d="M1255.8,1115.1c-0.3-0.7-0.6-1-0.6-1.4c-0.1-0.5,0.1-1,0.7-0.8c0.3,0.1,0.7,0.7,0.7,1
	S1256.2,1114.5,1255.8,1115.1z"/>
<path class="st1" d="M403,603c0.4,0.6,0.8,0.9,0.8,1.3c0,0.3-0.4,0.6-0.7,0.9c-0.3-0.3-0.8-0.6-0.9-1
	C402.2,603.9,402.6,603.5,403,603z"/>
<path class="st1" d="M995.1,1434.1c0.1-0.9,0.1-1.9,0.4-2.8c0.2-0.5,0.9-1.4,1-1.4c0.9,0.4,0.5,1.3,0.6,2.1
	C996.6,1432.9,996.1,1433.8,995.1,1434.1z"/>
<g>
	<path class="st1" d="M791,1386.9L791,1386.9L791,1386.9z"/>
	<path class="st1" d="M762,1547c-0.5-9.6,1.2-18.9,3.3-28.2c1.3-5.9,4.8-11.2,6.3-17.1c2.2-9,8-16.4,9.7-25.6c1-5.4,4.1-10.4,5.1-16
		c1.3-7.4,5.5-14.2,4.6-21.9c-0.4-2.9,2.6-5.2,1.7-7.5c-3.5-9.5-0.1-19.5-3-29.1c-1.4-4.6-1.4-10.1,1.4-14.8c-1-0.8-0.9-2.3-1.8-3.2
		c-0.4-0.2-0.8-0.4-1.2-0.5c-2.4-0.1-3,1.8-3.5,3.5c-0.2,0.7-0.1,1.4,0,2.1c-0.7-0.5-0.5-1.4-1-1.9c-0.2-0.2-0.4-0.5-0.6-0.7
		c-3.5-3.4-5.8-7.7-8.1-11.9c-1.2-2.2-2.3-4.8-5.5-4c-3,0.7-2.4,3.5-2.7,5.8c-0.7,6.1-0.3,12.4-1.6,18.4c-1.8,8.1-2.4,16.4-3.1,24.6
		c-1.2,13.9-3.4,27.7-3.8,41.6c-0.2,7.1-2,13.8-4.6,20.3c-0.6,1.4-0.4,3-0.9,4.4c-1.6,4.2-0.6,8.9-2.3,13c-1,2.4-1.6,4.7-1.7,7.2
		c-0.1,7.8,0.2,14.7,0.7,22.6c-0.9-1.4-2.2-2.4-3.3-3.7c-4.3-4.8-5.7-11.2-8.5-16.8c-6-12.1-10.4-24.9-15.4-37.4
		c-3.4-8.8-6.9-18.2-2.4-28c1-2.2,4.1-15.3,2.5-17.6c-1.4,0.6-11.7,11.1-12.3,11.9c-1.9,3.1,2.4,7.7-2.3,9.3
		c-24.3,3.8-1.3,18.3,0.5,18.9c3.4,1.2,9.2,3.4,9,6c-0.3,3.3,0.2,7.1,1.4,10.1c4.2,10.6,5.7,22.1,9.8,32.6
		c2.4,6.1,16.6,25,19.5,27.6c2.6,2.3,3.5,5,4.1,7.9c1.1,6.1,6.9,19.8,8.3,19.9C759.6,1563.3,762.1,1548.8,762,1547z"/>
</g>
<path class="st1" d="M613.4,1313.8c3.2,5.2,8.6,8.5,10.8,14.6c3.8,10.9,10,20.6,15.9,30.6c4.3,7.2,9.6,13.6,14.1,20.6
	c2.2,3.4,4.7,6.6,7.5,9.5c3.3,3.4,5.3,8.1,8.7,11c4,3.5,4.8,8.8,8.1,11.9c9.5,8.7,7.4,19.5,7.6,30.2c-2.7,0.4-4.5-1.2-5.9-2.9
	c-7.6-8.5-15-17.2-22.3-26c-7.2-8.6-15.9-16.4-20-27.3c-0.8-2.1-0.9-4.4-4.6-5.2c-4-0.8-4.6-6.1-6-9.6c-3.5-9-6.4-18.2-8.8-27.6
	C616,1333.9,612.6,1324.3,613.4,1313.8z"/>
<path class="st1" d="M838.9,1358.2c-0.7-0.4-1.8-0.6-2.1-1.2c-3.3-6.4-8.3-11.9-10.4-18.9c-1-3.2-0.5-6.6,0.5-10
	c1.7,6.6,4.7,12.3,8.8,17.5c0.1,0.1,0.1,0.3,0.2,0.4l3.3,5.5C837.7,1353.8,840.7,1356.1,838.9,1358.2z"/>
<path class="st1" d="M1089.8,1080.6c-1.7-9.9-3.6-19.8-4.5-29.8c-1.1-12.3-5.9-23.3-9.9-34.7c-2.4-6.8-7.1-12.5-9.2-19.5
	c-2-6.8-4.7-13.4-7.1-20.1c-1-3-0.3-7.4-4.8-8.7c0.2,5.2,1.6,10.2,2.5,15.3c1.1,5.9,1.2,11.9,2.9,17.8c0.4,1.3-0.4,3.4-1.3,4.6
	c-1,1.4-1.3,2.7-1.1,4.2c0.7,5.4-1.8,10.2-2.6,15.4c-0.9,5.8-3.4,11.5-4.1,17.3c-1,8-3.6,15.5-5,23.3c-1.2,6.3-2.2,12.9-2.7,19.1
	c-1,11.3-3.3,22.4-3.9,33.7c-0.1,2.8-0.5,6-2.1,9c-1.7-4.6-2.9-9.3-3.6-14c-0.8-5.4-5.6-30.5-5.6-37.5c0.1-8-1.9-16.3-2.1-24.2
	c-0.4-12.7-1.9-25.5,1.1-38.4c0.9-3.9,0.7-8.9,0.6-13.4c-0.2-5.6,0.1-11.3,1.5-16.7c1.4-5.7,3.8-11.1,5.5-16.8
	c2.1-7,3.1-14.5,6.5-21.1c0.6-1.1,1-2.4-0.6-3.2c-2.1,4.2-6.5,19.3-9.8,22.5c-2.6,2.5-7.5,32.7-7.2,37.4c0.2,4.3-1.3,8.8-1.7,13.4
	c-1.5-3.4-4.3-5.8-5.5-9.3c-3.5-9.5-11-16-22.7-12.3c-0.6,0.6-0.7,2-2.1,1.2c-2.2-1.3-3.5,3.2-5.7,1c-4.1-4.1-8.9-7.7-8.4-14.7
	c0.5-6.4,0.1-12.9,0.1-19.4c0-8.4,8.7-32.1,18.5-33c6.3-0.6,12.8-2.7,16.6-8.9c-0.7-0.7-1.6-1.1-2.2-1.9c-6.7,0.6-12.4,4.6-19,5.5
	c-5.5,0.8-10.1,4.4-16.2,4.6c-4.2,0.1-8.3,3.2-11.2,7.6c-2.2,3.3-7.9,17.7-9.1,21.5c-0.9,3.1-1.3,7.1,0.7,10.6
	c4.1,7.1,8,14.2,12.1,21.3c6.8,11.7,10.7,24.4,14.4,37.4c3,10.5,6.1,20.6,4.7,31.7c-1,7.3-2.8,14.5-4.4,21.6
	c-1.9,8.4-5.9,16.9-12.7,23.2c-1,1.5,0.2,6.1-4.1,3c-2.7,0.2-3,0-2-1.3c1.3-1.7,1-3.4,1-5.2c0-8,0-15.9,0-23.9
	c0-1.3-0.3-2.9,0.3-3.9c4.2-7,0.7-13.8-1-20.3c-1.7-6.6-5.3-12.8-9.3-18.3c-1.6-2.2-1.8-6.3-6-6.1c-0.2,0.2-0.3,0.3-0.5,0.5
	c-0.5,0.8-0.6,1.7-0.8,2.5c-0.4,1.6-0.1,3.1,1.3,4.2c2.4,7.7,9.2,13.1,10.9,21.3c2.3,10.9,2.9,21.6,0.5,32.6
	c-0.8,3.4-2.1,6.8-2.2,10.4c-0.3,10.1-2.4,20-5.6,29.5c-3.3,9.9-9.5,17.8-18.4,23.8c-8.2,5.6-16.2,10.5-26.7,10.4
	c-4.5,0-9.1-0.4-13.6-0.1c-6.1,0.4-11.8-2.3-18-2.3c-2.5,0-5.6,0-8.2-1.1c-10.8-4.5-22.7-5.8-33.3-10.9c-4.2-2-8.6-3.4-12.7-5.8
	c-4.1-2.4-7.3-6.4-11.4-8.3c-4.3-2-5.7-5.5-7.5-8.9c-6.3-11.7-8.1-24.8-11.2-37.5c-1.2-4.9-0.3-7.5,4.8-8.5c1.7-0.3,2.7-1.8,3.4-3.3
	c1.5-3.1,2.7-6.3,4.4-9.3c4.7-7.9,6.3-18.4,17.8-20.6c5.7-1.1,17.7-21.6,23.5-24.4c3.6,5.9,8.3,6.4,13.6,1.8c1.3,0,6.8-7.5,7.7-11.3
	c0.8-3.4,2-6.5,3.6-9.6c1.6-3-0.9-8.6-2.4-8c-7.1,2.9-13.2,7.5-19.4,11.8c-1.7,1.2-3,2.8-5.2,1.7c-6.2-3.1-12.1-6.5-19.1-8.3
	c-7.6-1.9-14.9-4.7-22.8-4.3c-12,0.6-24-1.1-36.1,1.4c-7.5,1.6-15.6,0.7-23.1,3.5c-5.5,2.1-11.6,3.2-16,7.7
	c-0.5,0.5-1.2,1.3-2.4,0.3c-9-6.7-18.6-12.4-29.2-18.1c1,8,5.5,13.9,7.1,20.9c1,4.6,5.5,7.2,7.9,11.1c3.3,5.3,6.5,5,11.6,1.5
	c1.6-1.1,3.9-1.7,5.6,0.7c1.8,2.5,3.1,5.3,4.6,7.9c4.7,8.1,12.2,13.3,21.2,15.7c3,0.8,4.8,2.2,5.9,4.6c2.3,4.8,4.9,9.4,8.2,13.5l0,0
	c2.9,6,13.5,18.9,13,20c-3.2,7.1-1.8,15-4.7,22.2c-3.9,9.8-6.6,19.7-16.2,26.3c-8,5.4-15.8,10.8-25.2,13.9
	c-12.7,4.1-25.2,9-38.5,11.2c-3,0.5-33.4,2.8-35.7,2.6c-2-0.2-24.8-8.6-31.3-17.5c-5-6.8-11.3-12.4-12.4-21.7
	c-0.7-5.7-1-11.6-3.1-17c-1.7-4.5-0.8-9.2-2.5-13.9c-2-5.3-0.4-11.5-1.5-17.4c-0.4-2.1,0.5-6.2,1-9.4c1.1-6.8,0.6-13.8,5.2-19.8
	c3.8-5,6.4-10.9,10.1-16c1.9-2.7,14.4-21.4,16.6-29.4c-1,0-8.6,8.3-11.5,12.3c-1.5,2.2-6.8,8.2-7.3,9.1c-4.1,6.5-8.5,12.8-11.9,19.7
	c-1.5,3.1-7.1,24.5-6,28.3c0,11.8,0.1,35.7-1.4,36.4c-1.7,0.8-2.1-1.2-3.1-1.9c-3.2-2.1-3.9-5.9-5.8-8.8c-4.3-6.6-6.5-14.1-8.8-21.5
	c-1.7-5.6-2.8-11.8-3.2-17.7c-0.6-8.2,8.9-43.2,10.9-47.7c3-6.8,4.8-14.2,8.6-20.5c4.2-6.9,9.6-12.9,11.6-21.2
	c1.4-5.8-4.2-23.7-5.6-26.6c-5.7-11.9-17.6-13.2-28.6-15.5c-4.1-0.9-14.2-1.8-15.4-1.5c-0.5,0.3-1.2,0.3-2,1.7
	c1.2-0.1,4.6,0.6,5,1.2c1.8,2.4,4.8,2.7,7,3.1c30.2,6.3,23.1,22.3,21.8,22.9c-3.9,2.1-5.8,5.8-4.1,9.5c4.1,8.6,0.3,16.7-0.7,24.8
	c-0.2,1.8-0.8,4.4-2.4,6.2c-2.3,2.6-9,3.7-12.9,1.8c-5.3-2.5-11.4-1.4-15.3,2.3c-6.7,6.2-9.5,14.2-10.7,22.9
	c-0.1,0.9,0.2,2.2-1.2,2.4c-1.3,0.3-1.6-0.7-1.8-1.8c-1.1-6.7-2-13.4-3.2-20.1c-1.9-10.4-0.5-21-4.4-31.3
	c-3.5-9.2-8.2-17.7-12.7-26.3c1.2,5.9,2.6,11.7,4.8,17.2c5,12.1,7.9,24.8,9,37.5c1,12.4,2.2,24.9,1.7,37.4
	c-0.5,12.8-1.4,25.7-1.2,38.5c0.2,11.6-4.7,22.3-4.2,33.9c0.3,5.9-2.9,11.9-3.5,18.1c-0.1,1-5.4-12.8-5.7-19.2
	c-0.5-10.1-3.1-20-2.8-30.3c0.1-2.5,0-4.9-1.4-7.5c-1.4-2.8-2.6-6.9-2.5-9.4c0-4.3-1.6-7.9-2.2-11.7c-0.9-5.2-3.2-10.1-4-15.4
	c-0.7-4.9-2.3-9.7-3.4-14.6c-1.3-5.9-2.9-11.9-2.3-17.8c0.9-10.2,2.5-20.2,5.4-30.1c0.9-3.1,3.6-6.6,1.9-10.6
	c-5.6,5-27,69.6-30.2,79.2c-2.4,7.1-3.2,14.8-4.9,22.2c-2.4,10.6-2.7,21.6-5.3,32.2c-1.9,7.5-3.9,40.2-2.7,48.7
	c0.6,4.5,1,8.9,1.7,13.4c0.8,5.3,2.3,10.5,3.5,16c0.6-0.5,1-0.6,1.1-0.9c0.1-0.8,0.2-1.6,0.2-2.5c1-21-1.6-42,1.6-63.1
	c1.3-8.4,1.3-16.9,3-25.4c1.8-8.6,2.8-17.3,5-25.8c1.6-6.2,1.7-12.8,3.3-19.1c1.8-6.9,3.1-13.9,5.8-20.5c0.4-1,0.2-3.1,2.3-2.6
	c1.6,0.4,1.1,1.9,1.1,2.9c0,6.4,2.5,12.4,2.8,18.7c0.2,4.2,3.6,7.1,3.8,10.9c0.5,8.5-4.3,55.3-6.2,62.4c-0.8,3.2-2.3,5.6-3.8,8.2
	c-7.2,12.3-7.7,26.3-9.5,39.8c-1,8-0.9,27.6,1.9,28.2c0-3.8,13-41.3,13-37.6s-0.2,8.1,1.5,11.1c4.2,7.4,5,16.1,9.9,23
	c1.2,1.7,1.1,3.3,1.4,5.1c1.1,6.7-2.4,12.9-1.9,19.5c0.6,8-2.3,15.8-2.3,23.9c0,3.4-2.4,19.2-2.6,23.4c-0.1,1.5,0.1,3-0.2,4.5
	c-1.8,8.3-1.2,16.9-2.7,25.3c-1,5.3,0,23.6-0.2,26.1c-0.6,5.7,6.4,34.1,8.8,38.4c2.1,3.8,4.7,7.5,5.3,11.8c1,6.8,5.7,11.5,9.2,17.2
	c1.2-1.6,0.8-2.8,0.5-3.9l0,0c-3-5-2.8-10.8-4-16.3c-3-13.1-2.7-26.6-4.9-39.8c-0.1-0.3-0.1-0.7,0-1c1-16.5-4.1-33-1.6-49.4
	c1.9-12.6,0.8-25.2,2.5-37.8c0.8-6.2,1.6-12.6,2.1-18.9c0.2-2.6,1.4-4.8,2.4-6.9c1.2-2.6,4.4-1.3,4.9,0.7c1.5,5.4,5,9.8,7.1,14.8
	c1.8,4.3,5.3,7.9,9.5,10.2c3,1.6,5.1,4.3,7.3,6.6c1.4,1.4,1,5.3,0.3,6.9c-3.1,6.9-5.3,14.1-8.8,20.9c-3.8,7.4-8.1,15-9.6,23
	c-1.6,8.6-3.9,17.1-5.4,25.8c-2.7,15.1-0.6,30.1-1.4,45.1c-0.1,2-0.3,4,0.9,5.8l0,0c2,3.2-0.3,7.1,1.3,10.3c1-3.5,0.8-4.9,2.4-4.8
	c0.6,2-1.4,4.9-1.4,7.5c0,4,0.6,4.8,1.4,8.2c0.4,0.6,1.1,5.1,1.9,5.2c0.7,0.1,0.1-4.2,0.1-4.9c0.2-6.9,4.9-12.1,6.9-18.4
	c0.5-1.4,0.7-4.6,3.4-4.6c3.1,3,0.9,6.3,0.7,9.4c-0.6,10.9,1.1,21.6,3.2,32.2c1.1,5.5,2.8,11,5.7,15.3c3.8,5.8,7.1,12.5,13.2,16.1
	c2.1,1.2,31,30.6,33.8,30.6c-1.5-4.1-11.9-26.1-12.5-31.6c-0.8-6.8-1.6-13.4-3.1-20.1c-1.7-7.6-2.5-15.5-3-23.2
	c-1.1-19.1-1.7-38.4,5.4-56.8c0.8-2.1-0.4-4.6,1.7-6.5c3-2.7,3.1-6.6,3.7-10.3c0.5-3.4-1.9-5.1-3.2-7.3c-2.7-4.6-3.8-10.2-7.9-14.1
	l0.1,0.1c-2.8-5.3-5.5-10.6-8.3-15.9c-0.4-0.7-1.7-3.8-2.2-5c-4.5-12.2-11.7-23.3-14.8-36.1c-1.3-5.5-2.9-11-3.8-16.5
	c-0.9-5.6-1.2-11.4-2.3-16.9c-2.4-12.9-0.3-25.5,0.8-38c0.8-9.1,3.2-18.2,3.3-27.5c0.1-8.6-1.3-17.2-0.1-25.8
	c0.2-1.3,0.3-2.9-0.3-3.9c-3.9-6.8-6.1-47.2-7.4-60c-0.5-4.5-0.5-9.1-2.1-13.5c-0.3-0.9,3.1,1.5,2.9,2.2c1.6,1.8,1.4,4.3,2.3,6.4
	c4,9.1,10.9,15.8,17.9,22.5c1.9,1.8,2.3,3.5,1.5,6.2c-1.6,5.3-3.6,10.7-3.5,16c0.1,6,2,12.1,3.6,18c0.6,2,0.1,4.1,1.3,6.2
	c6.6,11.6,4.6,23.5,1.6,35.7c-1,4.1-3.7,21.8-3.7,24.3c0.1,12.1,0.5,24.3-0.1,36.4c-0.7,13.2,5.2,43.7,7.1,46.2
	c1.6-0.9,1-5.8,2.8-5.6c1.7,0.1,3.1,14.4,3.5,20.3c0.7,11.8,7.1,21.5,14.5,30.6c4.5,5.5,9.3,11.8,5.9,19.2
	c-2.6,5.6-1.2,11.4-2.8,17.1c-1.2,4.1-1.7,9.3-2.4,13.8c-1,6.8-2.6,13.8-2.9,20.6c-0.6,15.3-0.7,30.7,1.5,46
	c0.7,5.1-0.6,10.5,0.4,15.4c1.6,7.7,4,15.2,6.7,22.6c2.5,6.7,15.8,27,21.2,31.9c1,0.5-8.8-23.2-10.2-27.2c-1.2-3.5-3-51.3-1.9-51.5
	c1.4-0.2,11.2,22.5,12.1,28.4c1,6.4,5.3,11.8,7.4,18.1c2,6,3.5,12.3,6.4,18.1c2.1,4.1,5.9,7.5,7.4,11.3
	c4.1,10.8,12.1,18.5,19.6,26.3c9.9,10.5,21.7,19.2,32.6,28.7c1.3,1.1,10.4,14.2,12.2,13.9c-1.9-8.7-4.4-36.6-3.8-43.3
	c0.5-6.3,1-20.5,1-21.3c0-4.8,0-9.6,0-14.4c-0.4-7,2.4-5.6-2-6.9c-1.1-0.3-1.2-1.5-1.1-2.6c0.4-2.4-0.1-5,1.4-7.2
	c0.2-0.4,0.4-0.8,0.5-1.3c0.2-1.3,0.2-3,1.5-3.5c4.3-1.5,4.7-5.6,6.2-9c0.8-1.8,0.6-4,1.9-5.6c1-1.4,0.4-3.6,2-4.9
	c1.5,1.6,1.3,3.4,1.3,5c0.3,9.9,4,19.1,6.2,28.7c0.2,1.1,0.7,2.4,2.2,2.3s1.7-1.3,2-2.5c0.2-0.6,0.2-1.3,0.2-2
	c0.6-10.8-0.5-21.6-1.4-32.4c-0.6-7.5-0.8-8.7,6.4-13.5c5.9-4,10.9-8.7,15.1-14.3c0.3-0.3,11.3-22.7,8.1-30.4
	c-7.2,8.3-8.5,9.6-11.5,11c-0.7,0.3-1.5,0.8-2.6-0.1c1.8-6.7,2.6-13.7,7.9-19.2c3-3.2,7-13.7,7.7-18.5c-0.5-0.1-7.8,7.1-8.3,7.2
	c-8,5-92.7,35.8-16.4,19.3c-2.5-1.6-2.8-4-4.2-5.5c-2.2-2.3-2.1-4.4-0.2-7c3.3-4.6,5.8-9.7,8.9-14.5c2.4-3.8,4-8.1,3.7-12.8
	c-0.1-1.9,0.4-4.8-1.9-5.2c-2.9-0.5-2.7,2.8-3.6,4.6c-1.1,2-0.4,4.5-1.8,6.6c-6,9.2-13.6,17.2-20.1,26.1c-2.3,3.2-5,6.4-8.1,9.5
	c-1.8-3.5-3-6.7-3.6-10.2c-0.5-2.6-1.1-5.2-2.5-7.5c-1.6-2.7-3.3-2.4-5-0.2c-0.6,0.8-0.8,1.8-1.4,2.7c-5.7,9-7.4,19.6-12.1,29
	c-1.3,2.7-2.7,5.3-2.6,8.5c0,1.1,0,2.5-1.4,2.9s-2.1-0.7-2.8-1.6c-3.3-4.2-17-18.6-18-19.7c-9.5-10.6-16.4-23-25.1-34.2
	c-2.6-3.3-6.3-6.9-6.3-11.6c0.1-5-2-9-4.2-13.1c-4.2-7.7-7-15.7-6.6-24.7c0.3-8.5,0.1-16.9-0.7-25.4c-1.1-11.6-0.3-23.5,1.5-34.8
	c1.9-12,4.9-23.9,7.7-36.2c-0.2,1.6-0.1,3.1-0.1,4.5c0.2,16.9,0.5,33.8,1.6,50.7c1.3,20.7,9.8,71.8,11.1,71
	c1.2-0.7-3.8-36.7-4.6-49.3c-0.8-13.9-0.6-28-1.5-41.9c-0.5-8.2,2.1-16.5-1-24.6c3.2,9,5.8,18,7,27.5c1.3,10.2,5,19.9,6.1,30.1
	c0.3,2.8,0,5.7,0.9,8.4c2.6,8.8,1.9,17.6,0.3,26.5c-1.3,7.2-2.4,14.4-3.5,21.7c-0.3,1.9,0.7,3.5,1.3,5.3
	c3.4,10.3,8.7,19.8,10.9,30.5c0.5,2.6,5.6,10.8,8.1,12.2c-0.8-2.6-0.8-3.5-1-4.6c-0.9-3.1-1.1-5.9-1.2-7.9
	c-0.2-4.6-2.4-8.6-2.8-13.1c-0.6-7.5-2.9-14.6-4-22c-1.3-8.8,1.4-23,1.7-19.8c0.1,1.6,2.7,7.7,2.7,7.7s2.3-6,2.5-7.4
	c0.8-4.3,2.9-8.1,4.6-12.1c2.6-5.8,4-6.6,10.5-5.9c3.6,0.4,4.8-1,3.2-4.1c-1.1-2.2-1.3-4.7-3.9-7.5c5.9,3.1,9.3,7.6,14.2,9.7
	c6.6,3,25.4,5.1,28.6,5.2c5.3,0.1,29.1,1.7,35.7,1.8c1.4,0,17-1.2,17-1.2s-15.5-2.9-17-3.2c-10.4-2.2-21.1-2.4-31.4-5.1
	c-9-2.3-18.2-3.7-26.9-7.2c-5.2-2.1-11.3-3.4-14.3-8.5c-5.6-9.2-10.7-18.8-15-28.6c-4.7-10.8-8.1-22.1-9.6-33.9
	c-0.2-1.9-0.1-3.5,0.5-5.3c3.2-9.7,9.2-17.2,17.4-23c5.6-3.9,9.3-3.8,13.9,1.1c4.9,5.2,10.5,6.7,17.1,3.8c4.9-2.2,9.8-3,15.1-2.8
	c9.3,0.4,8.5,2.5,17.9,1.2c4.2-0.6,10.3,1.1,13.8,5.1c2.9,2.9,5.9,7.3,9.5,9.7c1.8,0.8,2.8,0.9,4.1,0c0.7-0.1,0.8-1,1-1.6
	c2.2-6.8,8.9-8,14.6-10.4c2.8-1.2,5.8-1.2,8.2,0.3c3.7,2.2,7.5,4.4,9.9,8.2c1.1,1.7,0.5,1.4,2.2,2.6c2.2,1.6,5.9,1.3,6.3,0.3
	c1-2.5,1.2-5.2,2.1-7.7c2.1-6.4,5.2-8.7,11.9-7.7s13.2,0.8,19.9,0c6.8-0.8,13.8-0.9,20.2,1.9c6.6,2.9,11.9,1.2,17-3.1
	c6.1-5.2,8.1-5.3,15-1.1c1.6,1,3.2,1.9,4.6,3c6.7,5.1,12.4,11.4,15.4,19.2c2.6,6.7,1.7,13.8-1.4,20.4c-1.3,2.7-1.5,5.7-1.9,6.9
	c0.4,0.3,3.7,0.7,4.2,0.6c0.4-0.4,3.3-4.3,3.8-6.7c1-5.4,3.6-10.3,4.6-15.8c0.8-4.8,4.3-8.2,8.1-11c3.6-2.7,6.5-1.2,8.1,3.1
	c1.5,4.1,2.1,8.3,2.8,12.6c0.9,5.3,2.3,10.6,3.1,15.9c1.6,10.6,3.4,21.2,4.1,32c1,16.3-3,32.4-2.3,48.7c0.2,4.7-1.2,10-3.8,14
	c-3.2,5-9.3,21.3-10.2,23.1c-2.7,5.3-6.3,10.1-9.5,15.1c-5.2,8-11.6,15.4-17,23.3c-1.4,2-3.1,2.3-5.2,1c-0.5-0.1-0.9-0.2-1.4-0.1
	c-1.8,0.7-2.2,2.4-3,3.8c-2.6,4.4-4.3,9.4-8.2,13c-1,1-1.9,2.7-3.6,2.2c-2-0.5-2-2.4-2.1-4.1c-0.3-3.7-0.7-7.3-2.4-10.6
	c-4.7-9.2-8-19-12.3-28.3c-0.5-1.1-4.1-19.2-6.1-19.2c-0.5,13.9-2.1,16.9-2.5,18.6c-0.8,3.5-0.2,6.8,0.4,10.8
	c0.4,2.3-0.5,4.9-2.5,6.2c-2,1.2-3-1.5-4.5-2.2c-2.5-1.3-3.6-3.6-4.9-6c-2.5-4.8-5.1-9.7-11.1-11.2c-2.9,1.8-0.6,4.6-1.4,6.8
	c0,2.7-0.8,5.1-2.4,7.4c-1.4,2-3.1,3.8-3.9,5.4c-2.6-6.7-6.4-12.8-12.5-17.5c-1.4-1.1-10.7-5.1-12.8-7.4c-0.3,1.8,6.1,11.1,6.6,12.7
	c2.6,6.7,7.2,12.6,9.3,19.5c0.4,0.9,1.6,1.5,1.4,2.7c0,0.4,0.1,0.7,0.3,1.1c0.6,1.8-1,0.4-1.3,0.9c-2.1,0.2-3.7-0.7-4.7-2.3
	c-3.5-5.9-8.3-10.7-12.2-16.2c-0.8-1.1-8.6-16-11.1-17.6c1.4,6.8,6,17.9,6.3,19.3c1,4.8-1.8,8.2-4.2,11.8c-1.9,2.9-7.3,5.3-9.8,5.9
	c0,0.5,3.4,3,3.6,3.5c1,0,2.9-1.5,7.7-2.4c1.3,5.4,6.7,26.1,7.1,29.7c0.7,6.1-0.4,12.1-1.5,18.2c-1.7,8.9-5.1,17.1-7.7,25.6
	c-1.4,4.4-3.1,8.7-3.3,13.4c-0.1,2.2-0.5,4.2-1.3,6.3c-5.4,13.6-8.1,27.9-13,41.7c-2.6,7.3-15.1,37.5-11.6,38.9
	c5.6-3.9,8.6-4,10.5,0.7c1.6,3.7,3.3,7.6,3.6,11.9c0.4,5.2-1.8,10.2-1.1,15.3c1,0,15.7-10.8,22.2-16.1c3.6-2.9,7.6-5.9,9.7-10.4
	c3.4-6.9,3.2-14.3,3.1-21.7c-0.1-10.9,0.7-21.9-2-32.5c-1-3.8,0.2-7.9-1.7-11.1c-1.7-2.8-0.9-5.1-0.5-7.8
	c11.8,24,20.5,48.8,18.2,77.4c5.3-5.8,4.4-12.2,6.9-17.5c2-4.2,4.2-8.6,4.8-13.2c0.9-7,2.6-14.1,1.4-21.2c-0.8-4.6-0.6-9.3-3-13.6
	c-4-7.3-3.8-16-7.2-23.6c-1.6-3.5-1.2-7.8-2.9-11.6c-1.3-3-2.8-6.2-3.7-9.5c-1.4-4.9-2.4-10-4.5-14.8c-2.8-6.4-4.6-13.4-5.6-20.4
	c-0.8-5.6-2.6-11.1-2.7-16.8c-0.1-2.9-3.4-5.1-1.5-9.2c2.8,3.4,4.8,6.3,7.3,8.8c3.6,3.4,6.9,7.2,10.6,10.3c2.9,2.4,5.7,5.3,9.4,6.8
	c1.5,0.6,2,2.7,1.9,4.8c-1.2,14.1-3.5,28-3,42.2c0,0.8-0.4,2.2,1.3,2c1.1-4.2,2.3-8.4,3.2-12.6c1.9-8.7,5.8-16.9,5.3-26.1
	c-0.1-1.1-0.1-2.6,1.6-2.4c1.7,0.2,1.2,1.7,1.4,2.7c1.1,5.6,2.2,11.2,3.6,16.6c1.9,7.4,2.6,15,4.1,22.4c1.4,6.7,1.8,13.9,2.6,20.8
	c1.4,10.9,1.2,21.7,0.5,32.4c-0.3,4.4,0.3,9.4-1.7,13.5c-1.2,2.5-1.1,4.5-0.6,6.6c4.6-2.5,8.1-6.1,12.1-8.5
	c8.7-5.5,15.7-12.8,23.4-19.3c9.6-8.1,16.3-18.9,24.9-28c1.1-1.1,6.8-11.5,7.2-12.9c3-9.5,7.7-18.3,10.6-28
	c2.7-8.9,6.9-17.7,10.8-26.4c1.5-3.2,3-6.5,4.2-9.8c0.9-2.5,0.4-2.7,2.7-3.4c-0.5,14.8,0.6,29.4-2.9,44.1c-1.5,6-3.1,22.7-2,23.6
	c1.3,1.1,11.7-18,13.6-23.8l0,0c1.6-3.9,3.7-7.7,4.7-11.8c2.4-10.1,2.2-20.5,3-30.8c1.1-13.6-0.2-27.3,0.4-41
	c0.3-7.4-2.1-14.2-2.5-21.4c-0.2-3.8-0.2-7.9-1.1-11.8c-1.6-6.8-3.4-13.5-4.5-20.3c-1.5-9.2,5.5-15.1,10-21.4
	c7.4-10.2,11.8-20.9,12.3-33.4c0.1-3.4,6-18.4,7-22c1.8-6.1,3.1-12.5,4.2-18.8c1.3-7.7,1.4-15.6,1.4-23.4
	c-0.1-7.6,0.5-15.1-0.9-22.8c-1.3-7.2,0-15-4.9-21.4c-0.2-0.3,0-1,0.2-1.4c1.1-1.6,0.1-3.1,0.1-4.6c0.1-4.2-2.1-7.8-2.5-11.9
	c-0.9-8.3,2.7-15.3,5.8-22.5c4.4-10.3,6.5-20.9,5.3-32.1c-0.3-2.4-0.4-5.3-2.6-7.2c-2.3-1.9-1.5-3.7,0.1-5.5
	c4.3-4.8,8.4-9.8,13-14.3c3.1-3,3.6-7.7,6.9-10.3c2.1,4.2-1.4,7.7-1.2,11.5c0.7,11.2-1.9,22.2-2.3,33.3c-0.5,13.7-3.2,27.3-2.8,41.1
	c0.2,6.2,0,12.4,0,18.6c0,1.2-0.3,2.5,0.2,3.5c3.3,6.7,2.3,14.1,3.1,21.1c1.4,12.5,0.6,25.3,0.3,37.9c-0.1,4.6-1.6,9-3,13.5
	c-1.6,5.1-5.2,16.3-5.4,17.2c-1.4,9.6-7.2,17.5-10,26.6c-2.3,7.4-7.1,14.1-10.9,21c-4,7.3-7.3,14.9-12.1,21.9
	c-2.9,4.3-2.2,5.2-0.7,10.4c1,3.5,3.9,5.7,4.9,8.9c2.7,8.4,4.4,17.1,4.5,25.8c0.1,20.1,0.4,40.2-2.7,60.2
	c-1.7,11.3-3.1,22.5-8.5,32.6c-1.6,2.9-2.4,5.6-3.7,7.8c-1.6,2.7-5.7,10.1-4.6,11c1.2,0.9,8.3-8,11.1-9.8c7.3-5,11.5-13.2,19.5-17.1
	c1.1-0.5,14.3-16.7,18.5-23.8c6.1-10.3,7.3-22,8.1-33.6c0.5-7.2,0.1-14.4,0.1-21.6c7.1,8.2,11.2,17.4,13.3,27.7
	c1.4-3.3,0.5-18.5,2.6-21.8c1.7-2.7,1.5-6,1.4-9.2c-0.3-7.5-0.6-15.3,0.3-22.6c1.3-11-1-21.6-2-32.3c-0.9-9.8-5-19.2-8.7-28.4
	c-2.8-6.9-6.7-13.2-8.9-20.4c-0.7-2.2-5.3-19.9,0.1-24.3c4.2-3.4,17.4-21.4,18.1-26.6c0.1-0.7,1.1-1.2,1.6-1.8
	c1.6-2.2,3.3-1.1,3.8,0.4c1.2,3.7,2.8,7.2,3.5,11.1c4.8,25.2,2.1,50.6,3.1,75.9c0.6,14.3-0.8,28.5-1.7,42.6
	c-0.6,9.4-3,18.8-4.9,28.1c-0.8,3.9-1.5,8-2.6,11.9c-0.3,0.5-5.2,15-5.5,15.5c0.1,0.5,16.4-29.9,17.9-35.2
	c3.1-10.7,7.9-20.9,9.2-32.1c0.8-7.1,1.5-14.2,2.3-21.4c0.3-2.7-3.3-31.5-4.7-43.9c-1-9.3-2.2-18.6-2.9-27.8
	c-0.8-10.6-3.5-21.2-2.2-32c0.1-0.5,0.1-1.1,0-1.5c-2.7-6.5-1.2-12.2,2.5-17.8c4.8-7.2,5.8-16,9.1-23.8c1.2-2.9,1.8-5.9,0.7-9.1
	c-0.3-1,0-3.4,2-3.9c1-0.3,1.3,0.6,1.6,1.5c2.2,9.2,6.5,17.9,6.8,27.6c0.1,3.5,1.2,7,1.9,10.5c1.1-16.7,1.6-33-3.3-49.3
	c-3.1-10.3-8.1-19.6-12.6-29.1c-2.8-6-7-11.6-10.7-17.2c-0.7-1-1.6-2-1.2-3c2.1-4.6,1.6-10.2,3.7-14.5c4.8-9.9,7.1-20.4,10.1-30.8
	c2-6.7,3.4-13.4,5-20.5c5,12.4,7.9,25.4,11.1,38.3c3.2,13.2,3.3,26.9,5.7,40.2c2.5,13.7,0.4,27.6,3.6,40.9c3.3,13.5-4.7,26.5-0.1,40
	c4.6-11.8,5.4-24,5.7-36.2C1094.8,1115.7,1092.8,1098.1,1089.8,1080.6z M670,1259.8c-6-4.3-7-11-10.2-16.3c-1.5-2.4-2.6-4.8-5.5-5.8
	c-3.2-1.1-2.1-4.5-2.7-6.7c-0.7-2.3-1.2-4.7-2.3-6.9c-3.6-7.8-7.4-15.5-10.9-23.4c-1.5-3.3-5.9-4.8-5.5-9.4c0.1-1.1-1.6-2.4,0.3-3.3
	c1.5-0.7,3.2-1.4,4.5,0.2c3.4,4.1,7.3,7.5,8.8,13.2c2.3,8.5,7,16.5,9,24.8C658.6,1238.2,668.1,1246.9,670,1259.8z M812.3,1386
	c-3.4-1.4-3.3,1.8-4.6,3.2c-2.6-4.6-1.9-9.9-3.3-16.3c4.1,3.8,6.5,7.4,8.8,10.9C813.6,1384.4,813.4,1386.4,812.3,1386z
	 M955.9,1321.8c-1.7,4.3-2.1,8.8-3.3,13.1c-1.8,6.5-40.7,76-44.8,82.9c-1.2,2.1-3.2,3.8-5,5.4c-5.8,5.1-10.2,11.4-14.7,17.6
	c-1.2,1.7-2.4,3.3-4.2-0.1c-2.7-5.1-1.8-10-0.7-15.1c1.8-8.8,9-14.3,12.9-21.6c2.9-5.4,24.9-32.1,27.2-35.9c2.5-4,6.2-8,8-12
	c2.5-5.6,5.7-10.8,8.5-16.2c4.8-9.3,7-20.6,17.4-26.3C958.4,1316.7,956.8,1319.6,955.9,1321.8z"/>
<path class="st1" d="M712,1283c-1.5-0.1-3.2,0.4-4.4-1.2C709.2,1281.5,711.3,1279.2,712,1283L712,1283z"/>
<path class="st1" d="M950,1203.6c0,0.8,0.1,1.5-0.7,1.6s-1.1-0.6-1.2-1.2c-0.1-0.7,0-1.3,0.8-1.5
	C949.8,1202.3,949.8,1203.1,950,1203.6z"/>
<path class="st1" d="M698.5,1174c-0.3,0.4-0.6,1.2-1.1,1.3c-0.7,0.2-1.2-0.6-1.1-1.2c0.1-0.5,0.6-1.3,1-1.4
	C698,1172.4,698.5,1173,698.5,1174z"/>
<path class="st1" d="M1014.2,1240.7c2.6,0.6,1.8,2.6,1.7,4.3C1014,1244,1013.9,1242.4,1014.2,1240.7z"/>
<path class="st1" d="M831.2,1480c1,0.2,1.6,0.6,1.3,1.3c-0.2,0.4-1.1,0.6-1.6,0.7c-0.6,0.1-1.4-0.3-1-1.1
	C830.1,1480.4,830.8,1480.2,831.2,1480z"/>
<path class="st1" d="M709.6,1004.4c-0.3,0.1-0.7,0.4-1.1,0.4c-0.8,0-1.3-0.5-0.8-1.3c0.2-0.3,0.9-0.4,1.3-0.4
	C709.4,1003.2,709.9,1003.5,709.6,1004.4z"/>
<path class="st1" d="M852,1022.2c-0.2,0.7-0.1,1.6-1.1,1.3c-0.3-0.1-0.7-0.7-0.7-1c-0.1-0.6,0.1-1.4,1-1.2
	C851.5,1021.4,851.8,1021.9,852,1022.2z"/>
<path class="st1" d="M950,1030c-1,0-1.9-0.3-1.9-1.5s0.9-1.5,1.9-1.6C950,1028,950,1029,950,1030z"/>
<path class="st1" d="M1014.8,1033.8c-0.8,0-1.5-0.1-1.4-1c0-0.3,0.6-0.7,0.9-0.8c0.6-0.1,1.3,0.1,1.3,0.9
	C1015.5,1033.3,1015,1033.6,1014.8,1033.8z"/>
<path class="st1" d="M768,1066c0.1-0.9-0.2-2,0.8-2.6c0.2-0.1,1,0.3,1,0.5C770.2,1065.5,769.3,1065.9,768,1066
	C767.9,1065.9,768,1066,768,1066z"/>
<path class="st1" d="M796.8,1073c-0.4,0.9-1,1-1.6,0.8c-0.3-0.1-0.8-0.7-0.7-0.9c0.2-0.7,0.9-0.9,1.5-0.7
	C796.3,1072.3,796.5,1072.7,796.8,1073z"/>
<path class="st1" d="M515.9,1085c1.3,0.1,2.2,0.6,1.8,2.1c-0.1,0.3-1,0.6-1.1,0.5C515.7,1086.9,516,1085.8,515.9,1085
	C516,1084.9,515.9,1085,515.9,1085z"/>
<path class="st1" d="M577.8,1156.7c-0.2-0.2-0.6-0.5-0.7-0.8c-0.2-0.6,0-1.3,0.8-1.4c0.3,0,0.8,0.5,0.9,0.8
	C579,1155.9,578.8,1156.5,577.8,1156.7z"/>
<path class="st1" d="M912.9,1176.1c0,0.8,0,1.6-0.9,1.5c-0.3,0-0.7-0.6-0.8-0.9c-0.1-0.6,0-1.3,0.9-1.3
	C912.4,1175.4,912.7,1175.9,912.9,1176.1z"/>
<path class="st1" d="M1009,1236c1.4,0,2.2,0.5,1.8,2.1c-0.1,0.3-0.9,0.6-1.1,0.5C1008.8,1237.9,1009.1,1236.8,1009,1236
	C1009,1235.9,1009,1236,1009,1236z"/>
<path class="st1" d="M615.9,1290.3c-0.1,0.8-0.2,1.5-1.1,1.3c-0.3-0.1-0.7-0.7-0.7-1c0-0.6,0.1-1.4,1-1.2
	C615.4,1289.5,615.7,1290,615.9,1290.3z"/>
<path class="st1" d="M587,1290.9c-0.3,0.8,0.2,2-0.8,2.5c-0.5,0.3-0.8-0.3-0.9-0.8C585.1,1291.3,586.1,1291.2,587,1290.9
	C587,1291,587,1290.9,587,1290.9z"/>
<path class="st1" d="M586.9,1303.7c-0.2,0.3-0.5,0.8-0.8,0.8c-0.9,0.2-1-0.6-1-1.2c0-0.4,0.4-0.9,0.7-1
	C586.8,1302.2,586.8,1303,586.9,1303.7z"/>
<path class="st1" d="M954.9,1348.3c-0.3,0.5-0.5,1.1-0.8,1.2c-0.9,0.3-1-0.6-1-1.2c0-0.4,0.5-0.7,0.7-1
	C954.2,1347.7,954.5,1347.9,954.9,1348.3z"/>
<path class="st1" d="M966,946.9c0,0.9,0.3,2-0.6,2.7c-0.2,0.1-1-0.3-1.1-0.5C963.9,947.5,964.7,947,966,946.9
	C966.1,947,966,946.9,966,946.9z"/>
<path class="st1" d="M949.2,1370.7c-0.3-0.2-0.7-0.5-0.9-0.8c-0.3-0.6-0.1-1.3,0.6-1.6c0.2-0.1,0.8,0.3,1,0.6
	C950.1,1369.6,949.9,1370.2,949.2,1370.7z"/>
<path class="st1" d="M963.1,1450c-1-0.2-2.4,0.6-2.8-1.2c0-0.2,0.3-0.6,0.6-0.7C962.4,1447.8,962.9,1448.7,963.1,1450
	C963,1450,963.1,1450,963.1,1450z"/>
<path class="st1" d="M953.9,1452.9c-0.3-0.6-0.7-1-0.7-1.4c0-0.6,0.1-1.4,1-1.1c0.3,0.1,0.6,0.8,0.5,1.2
	C954.7,1452,954.3,1452.3,953.9,1452.9z"/>
<path class="st1" d="M614.8,1460.7c-0.2-0.3-0.6-0.6-0.7-0.9c-0.1-0.6-0.1-1.4,0.8-1.4c0.3,0,0.8,0.5,0.9,0.8
	C615.9,1459.8,615.8,1460.5,614.8,1460.7z"/>
<path class="st1" d="M805.9,1494.5c-0.2-0.2-0.6-0.5-0.7-0.9c-0.2-0.6,0-1.3,0.8-1.3c0.3,0,0.8,0.5,0.9,0.8
	C807,1493.7,806.9,1494.4,805.9,1494.5z"/>
<path class="st1" d="M683.9,1508.6c0.2,0.5,0.6,0.9,0.6,1.3c0,0.9-0.7,1-1.4,0.9c-0.5-0.1-1-0.4-0.8-1
	C682.5,1509.5,683,1509.3,683.9,1508.6z"/>
<path class="st1" d="M806.9,1555.2c-0.1,0.8,0,1.6-0.9,1.5c-0.3,0-0.7-0.6-0.8-0.9c-0.1-0.6,0-1.3,0.9-1.3
	C806.4,1554.5,806.7,1555,806.9,1555.2z"/>
<path class="st1" d="M986.4,1355c-0.4-0.4-0.7-0.6-1-0.9c0.3-0.3,0.5-0.8,0.9-0.9c0.3-0.1,0.7,0.3,1,0.5
	C987,1354.1,986.7,1354.4,986.4,1355z"/>
<path class="st1" d="M987.5,1031.5c-0.8-1.3-0.8-2.5-0.1-3.9C988.4,1029,988.3,1030.2,987.5,1031.5z"/>
<path class="st1" d="M1096.2,425.9"/>
<path class="st1" d="M1120.6,445.8"/>
<path class="st1" d="M975.6,772.8c-0.5-1.2-1.6-1-2.6-0.8c-7.2,1.7-14.3,1.4-21.6,0c-4.9-0.9-30.3-0.5-33.6-0.1
	c-4.1-1.2-8.3,1.5-12.8,1.3c-2-0.1-4.1,1.2-5.8,2.1c-5,2.5-17.5,20.3-20.3,24.9c-3,4.9-5.2,9.9-6.3,15.6c-1,5.4,2.2,16.6,2.5,17.2
	c3.5,6.7,4.3,13.8,4.1,21.2c-0.2,8.7,6.2,38.3,8.8,43.4c3.8,7.7,6.8,15.8,3.5,24.4c-2.9,7.6-3.2,15.7-4.6,23.5
	c-0.4,2.2-0.7,4.5-0.9,6.7c-0.6,4.8-5.5,14.6-4.6,15.3c0.9,0.7,1.8,0.3,2.6-0.6c2.5-2.9,7.4-16.4,6.7-20.1c-1.7-8.5,2.5-16,5-23.6
	c0.9-2.7,0.9-6.5,2.1-7.9c3.1-3.6-2.2-19.2-3-20.8c-3.5-7.4-6.5-14.9-6-23.4c0.1-1-0.1-2-0.5-2.9c-2.5-5.4-1.9-10.6,1.9-15
	c4.3-5.1,3.8-10.8,3.3-16.7c-0.1-0.6,10.1-10.2,16.6-9.3c6.7,0.9,13.3,1.3,19.5-0.7c7-2.2,15.1-3.8,19.5-10.1
	c4-5.7,8.1-11.3,12.5-16.6c4.5-5.5,8.4-9.9,2.7-16.7c-0.5-0.6,6.5-7,10.1-7.9C975.4,775,976.1,774,975.6,772.8z M946.2,790.1
	c-1.1,7.3-2.3,14.4-7.1,20.7c-2.9,3.8-7,2.8-10.1,3.6c-5.5,1.3-11.2,4-16.3,2.4c-12,0-18.6-5.7-20-16.6c-0.4-2.7,4.4-11.3,7.6-12.1
	c2.2-0.6,2.9-5,6.1-2.5c2.6,2-0.2,4.1-0.3,6.1c-0.2,4.1-0.6,6.6,0.5,10.2c0.7,2.3,5.4,4.8,7.7,3.7c2.6-1.3,6.9-1.2,6.9-5.8
	c0-3.7,0.2-7.3,0-11c-0.2-3.4,1.1-4.2,4.3-4.1c4.6,0.1,9.3-1.3,13.5,1.8c0.7,0.5,2.1,0.4,2.9,0C946,784.3,946.6,787.2,946.2,790.1z"
	/>
<path class="st1" d="M889,794.6c-0.3,0.3-0.5,0.9-0.9,0.9c-0.9,0.2-1-0.6-1-1.2c0-0.4,0.4-0.9,0.7-1
	C888.8,793.1,888.7,794,889,794.6z"/>
<path class="st1" d="M961.8,785.7c-0.2-0.2-0.6-0.5-0.7-0.9c-0.2-0.6-0.1-1.3,0.8-1.4c0.3,0,0.8,0.5,0.9,0.8
	C963,784.9,962.8,785.5,961.8,785.7z"/>
<path class="st1" d="M693.5,823.3c1.1-6.3-0.4-11.9-2.7-16.5c-3.2-6.5-7.8-12.4-10.4-19.4c-1-2.6-1.3-5.8-4-7.2
	c-5.2-2.6-10.4-5.8-15.9-6.9c-9.7-1.9-19.7-3.5-29.5-2.9c-5.2,0.3-10.8,0.5-16,1.6c-7.6,1.7-15.1,0.9-22.7,0.6c-0.7,0-1.5-1-2.1,0.1
	c-0.4,0.8-0.2,1.6,0.5,2.3c0.8,0.8,1.9,1.3,2.7,1.9c4,3.2,9.5,4.3,10.6,11.2c1.6,10.1,8.6,17.9,14.6,25.9c1.4,1.8,1.6,4.4,3.9,5.6
	c4.1,2.2,7.8,5.5,12.1,6.7c6.7,1.8,13.9,2.7,20.8,1.2c10.2-2.2,17.9,4.4,17,14.9c-0.5,5.7,2.8,10.4,4.7,15.4
	c0.2,0.6-0.1,8.3-0.1,11.6c-0.2,12.6-3.1,24.3-11.2,34.3c-0.8,1-1,2.4-0.4,3.3c2.4,4,3,8.5,4.3,12.9c2.4,7.9,6.1,15.4,6.4,23.9
	c0.4,0.8,0.8,1.6,2,1c1-5.5,1.8-10.9-0.6-16.4c-4-9.2-5.4-18.7,0.3-27.6c1.6-2.5-0.9-4.3,1.2-6.9c6.7-8.5,10.9-18,9.3-29.5
	c-0.8-5.7-0.2-11.6-0.1-17.5c0-1.9-1-3.7-0.1-5.8C690.2,835.5,692.3,829.7,693.5,823.3z M671.4,808.4c-2.7,5.1-6.2,9.6-13.3,8.6
	c-3.3-0.4-7.7,1.1-10.2,0.2c-6.7-2.4-14.9-1.8-19.9-7.4c-5.1-5.7-7-13.1-6-21c0.2-1.5,1-1.8,2.3-2.1c5.1-1.1,10.2-2.7,14.4-1.8
	c12.3,0,12.2,0,12.3,11.2c0,2.3-0.3,4.6,0.8,6.8c1,2,1.6,4.2,4.3,4.1c2.4-0.1,3.7-2.4,4.5-4.1c0.9-1.9,1.4-4.6,0.9-6.6
	c-0.9-3.4-0.8-6.9,2.3-8c3.8-1.4,6,2.4,7.7,5.2C674.5,798.3,673.9,803.7,671.4,808.4z"/>
<path class="st1" d="M350.8,1156c-0.5,0.3-0.8,0.4-1.2,0.6c-0.2-0.4-0.5-0.8-0.5-1.2c0-0.4,0.2-1.1,0.8-0.7
	C350.3,1155,350.4,1155.5,350.8,1156z"/>
<path class="st1" d="M610.4,837.4c-0.1,0.3-0.7,0.5-1.3,0.2c-0.3-0.1-0.8-0.7-0.7-0.9c0.2-0.7,0.8-0.8,1.5-0.7
	C610.2,836.2,610.8,836.4,610.4,837.4z"/>
<path class="st1" d="M648.5,1095.1c0.3,0.7,0.5,1.1,0.5,1.4c0,0.9-0.5,1.5-1.5,1.3c-0.4-0.1-1.1-0.1-0.7-0.8
	C647.2,1096.4,647.8,1095.9,648.5,1095.1z"/>
<path class="st1" d="M887.9,1079c0.4,0.5,0.9,0.8,0.9,1.2c0,0.4-0.2,1.1-0.4,1.2c-0.8,0.3-1.2-0.3-1.2-1
	C887.2,1080,887.5,1079.6,887.9,1079z"/>
<path class="st1" d="M949.6,1078.1c-0.3,0.2-0.6,0.6-1,0.6c-0.7,0.1-1.4-0.3-1.2-1.1c0.1-0.3,0.8-0.5,1.2-0.6
	C949.1,1077,949.6,1077.3,949.6,1078.1z"/>
<path class="st1" d="M1082,889.1c-1.5,0.5-1,3-3,2.9c-3.4-5.1-6.6-10.3-10.1-15.3c-4.4-6.3-6.6-13.9-12-19.5
	c-1.5-1.5-0.8-3.4-0.7-5.2l-0.1,0.1c3.5,4.7,8.4,8.3,11,13.7c2.3,4.8,6,8.6,9,13C1078.3,882.1,1080.3,885.5,1082,889.1z"/>
<path class="st1" d="M785.1,506.4c-1.4-2.4-1-4.8-0.2-7.2C786.4,501.6,786.1,504,785.1,506.4z"/>
<path class="st1" d="M826,427.9c0.1,1.1,0.4,2.2-0.4,3.2c-0.1,0.1-1-0.2-1.1-0.5C823.9,429,824.3,428,826,427.9L826,427.9z"/>
<path class="st1" d="M1224.1,847.2c-0.3,0.5-0.7,0.9-1,1.4c-4.9-1.7-7.3-6.2-10.9-9.4c-9.5-8.7-19.4-16.9-29.6-24.9
	c-6.8-5.3-13.5-10.7-19.8-16.5c-1.9-1.7-5.4-1.4-5.8-4.7c-2.4-1.9-2-3.6,0.1-5.4c3.1,4.3,8.7,4.3,12.5,7.9
	c8.3,7.7,18.8,12.6,26.8,20.8c3.2,3.3,7.7,5.5,10.5,9.2c2.7,3.6,5.8,6.4,9.3,9.1c2.9,2.3,5.3,5.4,7.9,8.1c0,0.3,0,0.6,0,1
	C1222.7,844.9,1222.9,846,1224.1,847.2z"/>
<path class="st1" d="M913,1353c-1.8-1.3-2.7-3.2-1.7-5.2c2.3-4.5,2.8-9.3,2.8-14.2c0-7.5,1.9-14.7,3.4-22c0.7-3.7,0.9-7.6-0.8-11.6
	c-1.3-3-3.3-6.1-2.6-9.8c0.3-1.5-0.5-2.8-2.7-4.2c0,9.8,0,19.1,0,29.5c-2.2-2.9-1.5-5-1.5-6.8c-0.1-7.1-2.2-13.7-6-19.6
	c-1.3-2.1-3.9-8.8-3.3-9.6c4.7-6.5,7.8-14,11-21.1c3.4-7.6,6-15.7,9.6-23.3c1.3-2.8,9.6-20.8,11.7-25.2c2.6,4.2-0.6,7.3-1.2,10.4
	c-1.6,9.1-3.7,18.2-6.3,26.9c-2.2,7.4-2.3,14.9-4.4,22.2c-2.2,7.7-1.7,15.8-1.2,23.7c0.4,6.3,1.3,12.7,3.1,18.7
	c2.5,7.9-0.2,14.8-2.5,21.9c-2.1,6.4-4.4,12.8-6.6,19.2C913.7,1353.4,913.3,1353.4,913,1353z"/>
<path class="st1" d="M932,1319c-1.2-1.4-2.5-2.8-1.4-4.8c2.5-4.4,2.5-9.6,2.9-14.1c1.1-12.8,2.3-25.8,1.6-38.7
	c-0.5-10.3,3-20.4,2.1-30.8c-0.3-4.1-0.2-8.2-0.2-12.2c-0.1-4.7,2.1-9.1,1.7-13.9c1.8,0.9,1.4,2.3,1.5,3.5c0,12.3,1,24.8-0.2,37
	c-1.2,12.6,0.7,25.4-1.5,37.7c-1.4,8-0.3,16.2-3.1,24.1c-1.3,3.5-2,8.1-1.6,12.3C933.2,1319.6,932.6,1319.5,932,1319z"/>
<path class="st1" d="M785.5,1287.3c4.4-4.1,69.6-8.8,106.8-28.4c5.4-5.4,19-35,23.1-41.4c0.7,0.7,1.6-0.3,1.8,4.8
	c-2.2,6.5-15.2,33.1-18.1,39.3c-2.9,6.3-9.9,10.2-17,12.5C848.3,1284,785.8,1289,785.5,1287.3z"/>
</svg>
